<svg xmlns="http://www.w3.org/2000/svg" width="873.87" height="698.69" viewBox="0 0 873.87 698.69">
  <g id="Groupe_40" data-name="Groupe 40" transform="translate(-46 -141.54)">
    <path id="Tracé_13" data-name="Tracé 13" d="M774.3,363.7a349.263,349.263,0,0,0-24.03-49.24C689.48,211.28,577.33,141.54,449.9,141.54c-191.84,0-350.16,157.8-350.16,349.33a344.649,344.649,0,0,0,9.94,82.36q1.335,5.505,2.88,10.93a351.52,351.52,0,0,0,104.4,166.91q4.02,3.615,8.16,7.07c60.82,51.15,139.06,82.09,223.98,82.09,191.65,0,349.32-157.68,349.32-349.36A346.133,346.133,0,0,0,774.3,363.7ZM449.1,816.08c-77.5,0-149.05-27.73-205.19-73.73q-4.575-3.735-9.01-7.65a327.484,327.484,0,0,1-99.92-160.1q-1.665-6.12-3.07-12.33a320.617,320.617,0,0,1-8.02-71.4c0-178.18,147.49-325.18,326.01-325.18,118.45,0,222.78,64.85,279.41,160.78a322.88,322.88,0,0,1,44.96,164.4C774.27,669.21,627.41,816.08,449.1,816.08Z"/>
    <path id="Tracé_14" data-name="Tracé 14" d="M450.97,185.23a2.715,2.715,0,1,0,2.72,2.71A2.74,2.74,0,0,0,450.97,185.23Zm-20.26,35.91a3.34,3.34,0,1,0,3.31,3.34A3.335,3.335,0,0,0,430.71,221.14Zm38.41,4.58a3.35,3.35,0,1,0,3.36,3.35A3.37,3.37,0,0,0,469.12,225.72Zm52.33-4.18a4.9,4.9,0,0,0-3.37-3.56l-1.42-7.2-.96,7.15a4.7,4.7,0,0,0-3.53,3.41l-7.02,1.24,6.97,1.14a4.785,4.785,0,0,0,3.33,3.44l1.21,7.41,1.24-7.35a4.844,4.844,0,0,0,3.48-3.36l7.27-1.28ZM387.07,248.69a2.715,2.715,0,1,0,2.71,2.72A2.727,2.727,0,0,0,387.07,248.69Zm53.04.84a2.72,2.72,0,1,0,2.68,2.71A2.706,2.706,0,0,0,440.11,249.53Zm-45.09,4.59a2.72,2.72,0,1,0,2.71,2.72A2.751,2.751,0,0,0,395.02,254.12Zm7.91,5.44a2.715,2.715,0,1,0,2.71,2.71A2.712,2.712,0,0,0,402.93,259.56Zm66.43,5.43a2.715,2.715,0,1,0,2.68,2.72A2.729,2.729,0,0,0,469.36,264.99Zm-78.53,5.02a2.705,2.705,0,1,0,2.71,2.7A2.725,2.725,0,0,0,390.83,270.01Zm127.18,22.95a3.335,3.335,0,1,0,0,6.67,3.335,3.335,0,0,0,0-6.67Zm-190.23,21.3a2.715,2.715,0,1,0,2.71,2.71A2.721,2.721,0,0,0,327.78,314.26Zm11.69,14.18a2.72,2.72,0,1,0,0,5.44,2.72,2.72,0,0,0,0-5.44Zm28.14-6.38a4.759,4.759,0,0,0-3.33-3.57l-1.44-7.21-.95,7.15a4.743,4.743,0,0,0-3.53,3.41l-7.03,1.24,6.99,1.14a4.785,4.785,0,0,0,3.29,3.44l1.23,7.41,1.23-7.35a4.824,4.824,0,0,0,3.5-3.35l7.27-1.29ZM332.87,559.6a2.724,2.724,0,0,0-5.32.81,2.648,2.648,0,0,0,.58,1.65,2.714,2.714,0,0,0,4.74-2.46Zm328.12,18.97a2.71,2.71,0,1,0,2.71,2.72A2.729,2.729,0,0,0,660.99,578.57Zm6.05,15.87a3.35,3.35,0,1,0,3.35,3.35A3.374,3.374,0,0,0,667.04,594.44Zm-48.02,1.68a3.34,3.34,0,1,0,3.37,3.33A3.359,3.359,0,0,0,619.02,596.12Zm86.72-2.02a4.714,4.714,0,0,0-3.33-3.56l-1.4-7.23-.96,7.15a4.682,4.682,0,0,0-3.53,3.41l-7.02,1.26,7,1.13a4.645,4.645,0,0,0,3.26,3.44l1.25,7.4,1.23-7.36a4.782,4.782,0,0,0,3.45-3.33l7.31-1.28ZM592.93,614.9a2.72,2.72,0,1,0,2.72,2.71A2.74,2.74,0,0,0,592.93,614.9Zm120.87-.84a3.345,3.345,0,1,0,3.35,3.35A3.355,3.355,0,0,0,713.8,614.06Zm-95.19,5.45a3.335,3.335,0,1,0,3.34,3.33A3.337,3.337,0,0,0,618.61,619.51Zm78.31,1.65a2.72,2.72,0,1,0,2.68,2.73A2.725,2.725,0,0,0,696.92,621.16Zm-365.6-.82a3.335,3.335,0,1,0,3.35,3.32A3.348,3.348,0,0,0,331.32,620.34Zm-87.68,16.29a3.33,3.33,0,1,0,3.31,3.32A3.338,3.338,0,0,0,243.64,636.63Zm-36.56,3.75a2.71,2.71,0,1,0,2.75,2.72A2.727,2.727,0,0,0,207.08,640.38Zm459.76,9.18a2.72,2.72,0,1,0,2.71,2.72A2.744,2.744,0,0,0,666.84,649.56Zm-73.91,2.94a2.705,2.705,0,1,0,2.72,2.7A2.725,2.725,0,0,0,592.93,652.5Zm-296.91.83a2.71,2.71,0,1,0,2.75,2.71A2.721,2.721,0,0,0,296.02,653.33Zm-56.77,2.5a2.705,2.705,0,1,0,2.72,2.71A2.74,2.74,0,0,0,239.25,655.83Zm452.24,9.18a2.715,2.715,0,1,0,2.71,2.7A2.725,2.725,0,0,0,691.49,665.01Zm-439.09.84a3.34,3.34,0,1,0,3.33,3.34A3.323,3.323,0,0,0,252.4,665.85Zm100.21,1.24a3.35,3.35,0,1,0,3.33,3.35A3.363,3.363,0,0,0,352.61,667.09Zm143.46,2.1a2.72,2.72,0,1,0,2.71,2.71A2.727,2.727,0,0,0,496.07,669.19Zm182.43-1.45a4.8,4.8,0,0,0-3.37-3.56l-1.4-7.22-.91,7.15a4.861,4.861,0,0,0-3.58,3.4l-7.05,1.25,7.01,1.14a4.806,4.806,0,0,0,3.32,3.44l1.21,7.41,1.25-7.35a4.777,4.777,0,0,0,3.44-3.35l7.31-1.29ZM431.31,692.15a2.715,2.715,0,1,0,2.71,2.71A2.73,2.73,0,0,0,431.31,692.15Zm-111.87.43a2.71,2.71,0,1,0,2.7,2.72A2.723,2.723,0,0,0,319.44,692.58Zm37.55,7.08a2.72,2.72,0,1,0,2.73,2.73A2.723,2.723,0,0,0,356.99,699.66Zm248.44,25.48a2.72,2.72,0,1,0,2.73,2.71A2.732,2.732,0,0,0,605.43,725.14Zm-271.24,8.63a4.692,4.692,0,0,0-3.32-3.54l-1.4-7.23-.96,7.15a4.836,4.836,0,0,0-3.59,3.41l-6.97,1.24,6.96,1.14a4.819,4.819,0,0,0,3.32,3.45l1.24,7.41,1.22-7.36a4.774,4.774,0,0,0,3.45-3.35l7.32-1.29Z"/>
    <path id="Tracé_15" data-name="Tracé 15" d="M555.51,436.63q-5.31-7.005-10.88-14.03c-2.51-3.2-5.07-6.36-7.63-9.46-14.68,5.71-29.23,11.19-43.42,16.38-15.45,5.64-30.44,10.92-44.73,15.73q-14.67,4.935-28.2,9.18c-1.85.58-3.79,1.19-5.81,1.81-9.29,2.91-20.32,6.38-32.72,10.35-15.24,4.87-32.55,10.51-51.27,16.85-.6.21-1.21.42-1.82.63-1.04.35-2.07.7-3.12,1.06s-2.09.7-3.14,1.07c-29.1,9.95-61.22,21.49-94.02,34.34h-.01q-14.94,5.865-29.98,12.08c-22.56,9.32-45.1,19.23-66.85,29.65q-11.265,5.385-22.23,10.96c-2.19,1.11-4.38,2.23-6.55,3.36-20.34,10.53-39.6,21.5-57.13,32.83l9.62,3.74c18.21-10.28,34.78-18.74,50.07-25.86q3.48-1.62,6.87-3.14c7.78-3.51,15.23-6.67,22.42-9.56,28.09-11.31,52.07-18.48,75.34-25.74h.01c1.52-.48,3.04-.96,4.55-1.43,7.59-2.39,17.88-5.32,30.11-8.63H245c25.52-6.89,59.47-15.47,94.79-24.34,3.03-.75,6.04-1.51,9.08-2.27,16.54-4.15,33.23-8.33,49.4-12.41,26.07-6.57,50.73-12.89,70.98-18.34,5.94-1.6,11.5-3.13,16.61-4.57,17.4-4.89,37.01-10.91,57.84-17.98q11-3.735,22.42-7.85Q560.96,443.84,555.51,436.63ZM207.65,759.64c-24.5,22.59-46,42.79-57.42,53.42l-1.06,11.74c26.31-23.64,47.88-42.59,66.09-58.23Q211.405,763.165,207.65,759.64ZM553.66,521.26l-.93,2.1,2.25-1.47ZM756.4,310.8c-2.09,1.26-4.14,2.47-6.13,3.66q-3.225,1.89-6.26,3.68-6.975,4.08-14.7,8.33c-48.63,26.73-117.83,57.44-185.18,83.88.89,1.1,1.78,2.19,2.67,3.29s1.78,2.21,2.66,3.32q5.94,7.485,11.58,15.03,2.31,3.075,4.55,6.16c1.5,2.05,2.98,4.11,4.44,6.16,1.01,1.41,2,2.81,2.98,4.22,20.43-7.52,41.53-15.94,62.53-25.22,39.19-17.27,77.99-37.5,111.16-60.29-14.76,13.99-50.21,41.63-86.72,68.67-8.19,6.07-16.43,12.09-24.49,17.93a72.479,72.479,0,0,1,15.74,7.64q14.925-10.3,28.06-19.69c32.57-23.17,57.12-41.9,74.35-56.38q.54-.465,1.11-.93c5.65-4.74,12.26-10.27,19.55-16.56,2.15-1.86,4.37-3.79,6.63-5.78,45.11-39.59,110.72-104.72,138.94-186.77C864.47,241.61,799.89,284.67,756.4,310.8Z" fill="#ff5c00"/>
    <path id="Tracé_16" data-name="Tracé 16" d="M651.234,457.263q-15.651,10.859-33.272,22.781h-.011q-8.463,5.711-17.389,11.691l-5.3,3.557h-.011q-8.871,5.931-18.194,12.088h-.011q-10.74,7.086-22.068,14.512l-1.314-.635-.929,2.107q-19.389,12.66-40.533,26.271-3.246,2.09-6.548,4.2c-6.208,3.987-14.591,9.493-24.436,16.052,0,0,0,.012-.011.012-15.826,10.535-35.447,23.812-55.985,37.927h-.012c-3.6,2.481-7.25,5-10.9,7.522-34.643,23.926-70.464,49.3-94.117,67.291C290.921,704.9,266.2,722.79,215.258,766.575q-3.856-3.416-7.612-6.933c42.017-38.744,92.859-84.5,116.83-101.05,14.228-9.822,46.571-31.969,83.241-56.857q3.4-2.312,6.843-4.656c11.17-7.568,22.657-15.328,34.087-23.043,25.217-16.992,50.14-33.668,70.746-47.228,17.684-11.634,32.2-20.969,40.964-26.237,1.1-.668,2.107-1.257,3.025-1.789,5.9-3.422,14.341-8.837,24.4-15.634l.079.125L591.114,481l2.118-1.371.091-.057c-.012-.022-.034-.056-.046-.079s-.022-.034-.034-.056c.839-.578,1.688-1.156,2.538-1.734h.011c11.929-8.213,25.546-17.842,39.7-28.083A72.782,72.782,0,0,1,651.234,457.263Z" fill="#ff5c00"/>
    <path id="Tracé_17" data-name="Tracé 17" d="M593.28,479.49c-.01-.02-.03-.03-.04-.06-.46-.76-.93-1.52-1.39-2.26q-6.99-11.31-14.72-22.65c-1.34-1.99-2.73-4-4.12-5.99-.98-1.41-1.97-2.81-2.98-4.22-1.46-2.05-2.94-4.11-4.44-6.16s-3.01-4.11-4.55-6.16q-5.625-7.545-11.58-15.03c-.88-1.11-1.77-2.22-2.66-3.32s-1.78-2.19-2.67-3.29C451.72,296.92,340.89,235.43,292.6,273.81c-29.06,23.08-26.96,79.87-1.16,146.73v.01q5.205,13.47,11.66,27.42c0,.01.01.01.01.02,5.82,12.56,12.37,25.35,19.66,38.21v.01c1.05-.37,2.1-.72,3.14-1.08s2.08-.71,3.12-1.06c.61-.21,1.22-.42,1.82-.63q-9.42-16.11-17.2-31.84v-.01q-7.53-15.21-13.46-29.84c-26.56-65.4-28.69-120.25-1.01-142.25,45.31-36,154.72,28.86,245.48,143.09q5.565,6.99,10.86,14.02,9.36,12.39,17.86,24.72,4.86,7.05,9.43,14.06,2.535,3.885,4.97,7.76l.08.12,3.25-2.27,2.12-1.37.09-.06Zm44.28,91.58q-4.125-11.865-9.38-24.28c-4.81-11.37-10.32-23.03-16.52-34.88q-5.235-10.005-11.1-20.17l-5.3,3.55q4.77,7.995,9.14,15.86c6.93,12.52,13.1,24.81,18.42,36.75q5.5,12.375,9.8,24.22c19.93,54.85,19.8,99.93-5.7,122.47-11.31,10.02-45.91,13.95-91.24-6.45-.63.79.39,2.94,1.18,3.46,39.12,15.74,76.59,21.73,95.51,6.7C657.6,678.26,658.08,630.08,637.56,571.07ZM463.74,639.56c-6.48-6.13-22.17-16.37-38.52-31.73h-.01c-3.6,2.48-7.25,5-10.9,7.52,10.55,14.88,24.93,33.15,36.18,38.47C467.46,661.85,472.03,647.41,463.74,639.56Zm-57.55-52.24c-6.92-8.71-16.17-20.02-23.85-29.62q-1.635-2.01-3.12-3.9c-.17-.21-.34-.43-.51-.64-10.76-13.57-20.71-27.28-29.84-40.97-3.04.76-6.05,1.52-9.08,2.27a633,633,0,0,0,37.22,52.02c9.9,12.46,18.9,22.51,23.51,28.75.94,1.26,2.79,4.06,5.29,7.78.64-.43,1.27-.86,1.91-1.28q3.39-2.31,6.84-4.65C411.72,594,408.91,590.75,406.19,587.32Z"/>
    <g id="Groupe_39" data-name="Groupe 39">
      <g id="Groupe_38" data-name="Groupe 38">
        <path id="Tracé_18" data-name="Tracé 18" d="M335.1,522.35a22.6,22.6,0,0,1,.21,2.83,8.412,8.412,0,0,1-2.72,5.95q-2.73,2.775-9.71,6.7a81.794,81.794,0,0,1-40.9,10.91q-22.515,0-36.98-9.94h-.01q-1.92-1.32-3.69-2.81a49.225,49.225,0,0,1-12.56-15.45,50.845,50.845,0,0,1-5.33-23.55q0-24.075,17.89-39.01,15.15-12.735,40.68-12.74a81.407,81.407,0,0,1,31.67,6.35,86.321,86.321,0,0,1,9.23,4.51q6.975,3.915,9.71,6.68a8.349,8.349,0,0,1,2.72,5.92,25.2,25.2,0,0,1-.21,2.94l2.94,1.95,20.72-31.08-2.83-1.96q-3.06,2.835-5.02,2.83t-11.01-5.12q-18.99-10.905-31.63-14.62a75.449,75.449,0,0,0-8.08-1.89c-2.77-.51-5.69-.92-8.75-1.21q-6.33-.615-13.49-.61-48.105,0-71.88,30-15.81,19.95-15.81,47a75.63,75.63,0,0,0,8.5,35.69l.33.63a69.89,69.89,0,0,0,11.23,15.61,71.488,71.488,0,0,0,9.71,8.5q22.575,16.68,57.81,16.68,17.67,0,30.48-3.77a120.261,120.261,0,0,0,19.81-8.21q2.31-1.17,4.74-2.46,3.405-1.83,7.03-3.92,9.045-5.25,11.01-5.25t5.02,2.84l2.83-1.97-20.72-31.03Z"/>
        <path id="Tracé_19" data-name="Tracé 19" d="M503.39,492.96a58.273,58.273,0,0,0-16.75-7.95,117.183,117.183,0,0,0-17.39-3.57c-2.31-.33-4.74-.64-7.3-.91l-17.13-1.73q-17.235-1.755-22.47-3.28-10.14-3.045-10.15-11.44a13.28,13.28,0,0,1,2.64-7.84,19.844,19.844,0,0,1,1.35-1.64,24.539,24.539,0,0,1,10.41-6.54,67.124,67.124,0,0,1,20.4-2.83c.63,0,1.24.01,1.85.02q25.02.465,43.74,13.51,6.315,4.245,6.32,7.96c0,.44-.03,1.02-.1,1.75l3.05,1.74,17.78-35.05-3.06-1.64c-2.04,1.67-3.81,2.51-5.34,2.51-.94,0-3.53-.84-7.74-2.51q-5.22-2.19-9.92-4a165.97,165.97,0,0,0-20.84-6.68,115.693,115.693,0,0,0-26.61-2.9q-34.035,0-51.04,16.25-12.705,12.075-12.97,30.4c-.02.27-.02.55-.02.82a39.574,39.574,0,0,0,5.14,20.3,36.321,36.321,0,0,0,15.58,14.74,61.6,61.6,0,0,0,13.97,5.08q6.975,1.575,23.88,3.33l16.8,1.74q16.9,1.86,22.47,4.02,7.965,3.165,7.96,10.56a15.557,15.557,0,0,1-3.38,9.43,24.042,24.042,0,0,1-9.06,7.24q-10.245,4.89-24.75,4.89a95.57,95.57,0,0,1-28.14-4.58q-14.835-4.59-21.92-10.91-4.7-4.14-4.69-9.05v-1.41l-3.16-1.53-14.09,31.9-2.06,4.63,3.17,1.64a20.994,20.994,0,0,1,2.52-1.73,4.315,4.315,0,0,1,1.95-.67q1.185,0,7.31,2.83,28.155,13.875,57.05,14.18c25.21-17,50.14-33.67,70.74-47.23.03-.39.03-.77.03-1.16a41.405,41.405,0,0,0-4.31-18.63A37.486,37.486,0,0,0,503.39,492.96Zm2.26,60.88c-6.21,3.99-14.59,9.49-24.43,16.05q18.99-5.34,28.06-16.34a44.23,44.23,0,0,0,2.92-3.92C510.04,551.03,507.85,552.43,505.65,553.84Z"/>
        <path id="Tracé_20" data-name="Tracé 20" d="M677.46,433.52q-3.06,2.505-5.35,2.51-1.41,0-7.74-2.51c-1.49-.64-2.96-1.24-4.39-1.83a196.507,196.507,0,0,0-24.44-8.38c-.65-.17-1.29-.33-1.92-.47a115.843,115.843,0,0,0-26.62-2.9q-29.28,0-45.96,12.05a47.792,47.792,0,0,0-5.08,4.2c-.15.14-.29.29-.44.42a.035.035,0,0,0-.01.02,40.074,40.074,0,0,0-11.81,22.26,48.96,48.96,0,0,0-.72,8.52,39.761,39.761,0,0,0,5.12,20.3,36.143,36.143,0,0,0,12.26,12.86c1.1-.67,2.1-1.26,3.02-1.79,5.9-3.42,14.34-8.83,24.4-15.63l.08.12,3.25-2.27,2.12-1.37a.528.528,0,0,0,.01-.12v-.08c.84-.58,1.69-1.15,2.54-1.73-1.42-.18-2.73-.36-3.93-.53a66.7,66.7,0,0,1-8.62-1.65c-.14-.04-.28-.09-.42-.13q-9.72-3.09-9.73-11.31a12.728,12.728,0,0,1,.3-2.75,14.7,14.7,0,0,1,3.69-6.73c.02-.02.04-.06.06-.08a24.7,24.7,0,0,1,10.35-6.46,67.057,67.057,0,0,1,20.39-2.83,84.057,84.057,0,0,1,27.62,4.39,72.479,72.479,0,0,1,15.74,7.64c.75.49,1.5.99,2.24,1.5q6.315,4.245,6.32,7.96c0,.44-.04,1.02-.11,1.75l3.05,1.74,16.56-32.64,1.23-2.41Zm-1.47,73.5a37.6,37.6,0,0,0-11.73-14.06,58.087,58.087,0,0,0-16.74-7.95q-9.435-2.85-24.71-4.48l-4.85-.49h-.01q-8.46,5.715-17.39,11.7l-5.3,3.55h-.01q-8.865,5.94-18.19,12.09c.2.06.4.1.61.15q6.96,1.575,23.88,3.33l2.85.29,7.26.76,6.69.69q16.905,1.86,22.46,4.02,7.965,3.165,7.97,10.56a15.57,15.57,0,0,1-3.39,9.43,24.164,24.164,0,0,1-9.05,7.24,46,46,0,0,1-8.16,2.94,50.757,50.757,0,0,1-5.36,1.11,71.227,71.227,0,0,1-11.24.84,95.571,95.571,0,0,1-28.14-4.58q-14.835-4.59-21.92-10.91-4.68-4.14-4.69-9.05v-1.41l-1.85-.9-1.32-.63-.93,2.1-15.2,34.43,3.16,1.64q3.045-2.4,4.46-2.4c.81,0,3.24.94,7.32,2.83q28.785,14.175,58.34,14.19a119.908,119.908,0,0,0,21.81-1.93c1.67-.32,3.32-.66,4.94-1.05,1.39-.32,2.76-.67,4.12-1.06q19.3-5.34,28.47-16.46a42.356,42.356,0,0,0,10.14-27.9A41.661,41.661,0,0,0,675.99,507.02Z"/>
      </g>
    </g>
    <path id="Tracé_21" data-name="Tracé 21" d="M591.114,481l-3.251,2.277-.079-.125Z" fill="#fc3d21"/>
    <path id="Tracé_22" data-name="Tracé 22" d="M593.323,479.568l-.091.057L591.114,481l2.129-1.484.034-.023C593.289,479.512,593.311,479.546,593.323,479.568Z" fill="#fc3d21"/>
  </g>
</svg>
