<svg xmlns="http://www.w3.org/2000/svg" width="740" height="527" viewBox="0 0 740 527">
  <g id="Groupe_51" data-name="Groupe 51" transform="translate(-26.5 -172.633)">
    <g id="Calque_4" data-name="Calque 4">
      <g id="Groupe_44" data-name="Groupe 44" opacity="0.4">
        <circle id="Ellipse_6" data-name="Ellipse 6" cx="187.027" cy="187.027" r="187.027" transform="translate(27 235)" fill="none" stroke="#2e2e2e" stroke-miterlimit="10" stroke-width="1"/>
        <circle id="Ellipse_7" data-name="Ellipse 7" cx="187.027" cy="187.027" r="187.027" transform="translate(46.208 235.607)" fill="none" stroke="#2e2e2e" stroke-miterlimit="10" stroke-width="1"/>
        <circle id="Ellipse_8" data-name="Ellipse 8" cx="187.027" cy="187.027" r="187.027" transform="translate(65.415 235.607)" fill="none" stroke="#2e2e2e" stroke-miterlimit="10" stroke-width="1"/>
        <circle id="Ellipse_9" data-name="Ellipse 9" cx="187.027" cy="187.027" r="187.027" transform="translate(84.623 235.607)" fill="none" stroke="#2e2e2e" stroke-miterlimit="10" stroke-width="1"/>
        <circle id="Ellipse_10" data-name="Ellipse 10" cx="187.027" cy="187.027" r="187.027" transform="translate(103.831 235)" fill="none" stroke="#2e2e2e" stroke-miterlimit="10" stroke-width="1"/>
        <circle id="Ellipse_11" data-name="Ellipse 11" cx="187.027" cy="187.027" r="187.027" transform="translate(123.038 235.607)" fill="none" stroke="#2e2e2e" stroke-miterlimit="10" stroke-width="1"/>
        <circle id="Ellipse_12" data-name="Ellipse 12" cx="187.027" cy="187.027" r="187.027" transform="translate(142.246 235.607)" fill="none" stroke="#2e2e2e" stroke-miterlimit="10" stroke-width="1"/>
        <circle id="Ellipse_13" data-name="Ellipse 13" cx="187.027" cy="187.027" r="187.027" transform="translate(161.454 235.607)" fill="none" stroke="#2e2e2e" stroke-miterlimit="10" stroke-width="1"/>
        <circle id="Ellipse_14" data-name="Ellipse 14" cx="187.027" cy="187.027" r="187.027" transform="translate(180.661 235)" fill="none" stroke="#2e2e2e" stroke-miterlimit="10" stroke-width="1"/>
        <circle id="Ellipse_15" data-name="Ellipse 15" cx="187.027" cy="187.027" r="187.027" transform="translate(199.869 235.607)" fill="none" stroke="#2e2e2e" stroke-miterlimit="10" stroke-width="1"/>
        <circle id="Ellipse_16" data-name="Ellipse 16" cx="187.027" cy="187.027" r="187.027" transform="translate(219.077 235.607)" fill="none" stroke="#2e2e2e" stroke-miterlimit="10" stroke-width="1"/>
        <circle id="Ellipse_17" data-name="Ellipse 17" cx="187.027" cy="187.027" r="187.027" transform="translate(238.284 235.607)" fill="none" stroke="#2e2e2e" stroke-miterlimit="10" stroke-width="1"/>
        <circle id="Ellipse_18" data-name="Ellipse 18" cx="187.027" cy="187.027" r="187.027" transform="translate(257.492 235)" fill="none" stroke="#2e2e2e" stroke-miterlimit="10" stroke-width="1"/>
        <circle id="Ellipse_19" data-name="Ellipse 19" cx="187.027" cy="187.027" r="187.027" transform="translate(276.7 235.607)" fill="none" stroke="#2e2e2e" stroke-miterlimit="10" stroke-width="1"/>
        <circle id="Ellipse_20" data-name="Ellipse 20" cx="187.027" cy="187.027" r="187.027" transform="translate(295.907 235.607)" fill="none" stroke="#2e2e2e" stroke-miterlimit="10" stroke-width="1"/>
        <circle id="Ellipse_21" data-name="Ellipse 21" cx="187.027" cy="187.027" r="187.027" transform="translate(315.115 235.607)" fill="none" stroke="#2e2e2e" stroke-miterlimit="10" stroke-width="1"/>
        <circle id="Ellipse_22" data-name="Ellipse 22" cx="187.027" cy="187.027" r="187.027" transform="translate(334.323 235)" fill="none" stroke="#2e2e2e" stroke-miterlimit="10" stroke-width="1"/>
        <circle id="Ellipse_23" data-name="Ellipse 23" cx="187.027" cy="187.027" r="187.027" transform="translate(353.53 235.607)" fill="none" stroke="#2e2e2e" stroke-miterlimit="10" stroke-width="1"/>
        <circle id="Ellipse_24" data-name="Ellipse 24" cx="187.027" cy="187.027" r="187.027" transform="translate(372.738 235.607)" fill="none" stroke="#2e2e2e" stroke-miterlimit="10" stroke-width="1"/>
        <circle id="Ellipse_25" data-name="Ellipse 25" cx="187.027" cy="187.027" r="187.027" transform="translate(391.946 235.607)" fill="none" stroke="#2e2e2e" stroke-miterlimit="10" stroke-width="1"/>
      </g>
    </g>
    <g id="Calque_6" data-name="Calque 6">
      <rect id="Rectangle_46" data-name="Rectangle 46" width="531" height="400" transform="translate(134.5 200.5)" fill="none" stroke="#2e2e2e" stroke-miterlimit="10" stroke-width="1"/>
      <rect id="Rectangle_47" data-name="Rectangle 47" width="53.05" height="53.05" transform="translate(134.5 200.975)" fill="none" stroke="#2e2e2e" stroke-miterlimit="10" stroke-width="1"/>
      <rect id="Rectangle_48" data-name="Rectangle 48" width="53.05" height="53.05" transform="translate(187.55 200.975)" fill="none" stroke="#2e2e2e" stroke-miterlimit="10" stroke-width="1"/>
      <rect id="Rectangle_49" data-name="Rectangle 49" width="53.05" height="53.05" transform="translate(240.6 200.975)" fill="none" stroke="#2e2e2e" stroke-miterlimit="10" stroke-width="1"/>
      <rect id="Rectangle_50" data-name="Rectangle 50" width="53.05" height="53.05" transform="translate(293.65 200.975)" fill="none" stroke="#2e2e2e" stroke-miterlimit="10" stroke-width="1"/>
      <rect id="Rectangle_51" data-name="Rectangle 51" width="53.05" height="53.05" transform="translate(346.7 200.975)" fill="none" stroke="#2e2e2e" stroke-miterlimit="10" stroke-width="1"/>
      <rect id="Rectangle_52" data-name="Rectangle 52" width="53.05" height="53.05" transform="translate(399.75 200.975)" fill="none" stroke="#2e2e2e" stroke-miterlimit="10" stroke-width="1"/>
      <rect id="Rectangle_53" data-name="Rectangle 53" width="53.05" height="53.05" transform="translate(452.8 200.975)" fill="none" stroke="#2e2e2e" stroke-miterlimit="10" stroke-width="1"/>
      <rect id="Rectangle_54" data-name="Rectangle 54" width="53.05" height="53.05" transform="translate(505.85 200.975)" fill="none" stroke="#2e2e2e" stroke-miterlimit="10" stroke-width="1"/>
      <rect id="Rectangle_55" data-name="Rectangle 55" width="53.05" height="53.05" transform="translate(558.9 200.975)" fill="none" stroke="#2e2e2e" stroke-miterlimit="10" stroke-width="1"/>
      <rect id="Rectangle_56" data-name="Rectangle 56" width="53.05" height="53.05" transform="translate(611.95 200.975)" fill="none" stroke="#2e2e2e" stroke-miterlimit="10" stroke-width="1"/>
      <rect id="Rectangle_57" data-name="Rectangle 57" width="53.05" height="53.05" transform="translate(134.627 253.689)" fill="none" stroke="#2e2e2e" stroke-miterlimit="10" stroke-width="1"/>
      <rect id="Rectangle_58" data-name="Rectangle 58" width="53.05" height="53.05" transform="translate(187.677 253.689)" fill="none" stroke="#2e2e2e" stroke-miterlimit="10" stroke-width="1"/>
      <rect id="Rectangle_59" data-name="Rectangle 59" width="53.05" height="53.05" transform="translate(240.727 253.689)" fill="none" stroke="#2e2e2e" stroke-miterlimit="10" stroke-width="1"/>
      <rect id="Rectangle_60" data-name="Rectangle 60" width="53.05" height="53.05" transform="translate(293.777 253.689)" fill="none" stroke="#2e2e2e" stroke-miterlimit="10" stroke-width="1"/>
      <rect id="Rectangle_61" data-name="Rectangle 61" width="53.05" height="53.05" transform="translate(346.827 253.689)" fill="none" stroke="#2e2e2e" stroke-miterlimit="10" stroke-width="1"/>
      <rect id="Rectangle_62" data-name="Rectangle 62" width="53.05" height="53.05" transform="translate(399.877 253.689)" fill="none" stroke="#2e2e2e" stroke-miterlimit="10" stroke-width="1"/>
      <rect id="Rectangle_63" data-name="Rectangle 63" width="53.05" height="53.05" transform="translate(452.927 253.689)" fill="none" stroke="#2e2e2e" stroke-miterlimit="10" stroke-width="1"/>
      <rect id="Rectangle_64" data-name="Rectangle 64" width="53.05" height="53.05" transform="translate(505.977 253.689)" fill="none" stroke="#2e2e2e" stroke-miterlimit="10" stroke-width="1"/>
      <rect id="Rectangle_65" data-name="Rectangle 65" width="53.05" height="53.05" transform="translate(559.027 253.689)" fill="none" stroke="#2e2e2e" stroke-miterlimit="10" stroke-width="1"/>
      <rect id="Rectangle_66" data-name="Rectangle 66" width="53.05" height="53.05" transform="translate(612.077 253.689)" fill="none" stroke="#2e2e2e" stroke-miterlimit="10" stroke-width="1"/>
      <rect id="Rectangle_67" data-name="Rectangle 67" width="53.05" height="53.05" transform="translate(134.754 306.404)" fill="none" stroke="#2e2e2e" stroke-miterlimit="10" stroke-width="1"/>
      <rect id="Rectangle_68" data-name="Rectangle 68" width="53.05" height="53.05" transform="translate(187.804 306.404)" fill="none" stroke="#2e2e2e" stroke-miterlimit="10" stroke-width="1"/>
      <rect id="Rectangle_69" data-name="Rectangle 69" width="53.05" height="53.05" transform="translate(240.854 306.404)" fill="none" stroke="#2e2e2e" stroke-miterlimit="10" stroke-width="1"/>
      <rect id="Rectangle_70" data-name="Rectangle 70" width="53.05" height="53.05" transform="translate(293.904 306.404)" fill="none" stroke="#2e2e2e" stroke-miterlimit="10" stroke-width="1"/>
      <rect id="Rectangle_71" data-name="Rectangle 71" width="53.05" height="53.05" transform="translate(346.954 306.404)" fill="none" stroke="#2e2e2e" stroke-miterlimit="10" stroke-width="1"/>
      <rect id="Rectangle_72" data-name="Rectangle 72" width="53.05" height="53.05" transform="translate(400.004 306.404)" fill="none" stroke="#2e2e2e" stroke-miterlimit="10" stroke-width="1"/>
      <rect id="Rectangle_73" data-name="Rectangle 73" width="53.05" height="53.05" transform="translate(453.054 306.404)" fill="none" stroke="#2e2e2e" stroke-miterlimit="10" stroke-width="1"/>
      <rect id="Rectangle_74" data-name="Rectangle 74" width="53.05" height="53.05" transform="translate(506.104 306.404)" fill="none" stroke="#2e2e2e" stroke-miterlimit="10" stroke-width="1"/>
      <rect id="Rectangle_75" data-name="Rectangle 75" width="53.05" height="53.05" transform="translate(559.154 306.404)" fill="none" stroke="#2e2e2e" stroke-miterlimit="10" stroke-width="1"/>
      <rect id="Rectangle_76" data-name="Rectangle 76" width="53.05" height="53.05" transform="translate(612.204 306.404)" fill="none" stroke="#2e2e2e" stroke-miterlimit="10" stroke-width="1"/>
      <rect id="Rectangle_77" data-name="Rectangle 77" width="53.05" height="53.05" transform="translate(134.88 359.118)" fill="none" stroke="#2e2e2e" stroke-miterlimit="10" stroke-width="1"/>
      <rect id="Rectangle_78" data-name="Rectangle 78" width="53.05" height="53.05" transform="translate(187.93 359.118)" fill="none" stroke="#2e2e2e" stroke-miterlimit="10" stroke-width="1"/>
      <rect id="Rectangle_79" data-name="Rectangle 79" width="53.05" height="53.05" transform="translate(240.98 359.118)" fill="none" stroke="#2e2e2e" stroke-miterlimit="10" stroke-width="1"/>
      <rect id="Rectangle_80" data-name="Rectangle 80" width="53.05" height="53.05" transform="translate(294.03 359.118)" fill="none" stroke="#2e2e2e" stroke-miterlimit="10" stroke-width="1"/>
      <rect id="Rectangle_81" data-name="Rectangle 81" width="53.05" height="53.05" transform="translate(347.08 359.118)" fill="none" stroke="#2e2e2e" stroke-miterlimit="10" stroke-width="1"/>
      <rect id="Rectangle_82" data-name="Rectangle 82" width="53.05" height="53.05" transform="translate(400.13 359.118)" fill="none" stroke="#2e2e2e" stroke-miterlimit="10" stroke-width="1"/>
      <rect id="Rectangle_83" data-name="Rectangle 83" width="53.05" height="53.05" transform="translate(453.18 359.118)" fill="none" stroke="#2e2e2e" stroke-miterlimit="10" stroke-width="1"/>
      <rect id="Rectangle_84" data-name="Rectangle 84" width="53.05" height="53.05" transform="translate(506.23 359.118)" fill="none" stroke="#2e2e2e" stroke-miterlimit="10" stroke-width="1"/>
      <rect id="Rectangle_85" data-name="Rectangle 85" width="53.05" height="53.05" transform="translate(559.28 359.118)" fill="none" stroke="#2e2e2e" stroke-miterlimit="10" stroke-width="1"/>
      <rect id="Rectangle_86" data-name="Rectangle 86" width="53.05" height="53.05" transform="translate(612.33 359.118)" fill="none" stroke="#2e2e2e" stroke-miterlimit="10" stroke-width="1"/>
      <rect id="Rectangle_87" data-name="Rectangle 87" width="53.05" height="53.05" transform="translate(135.007 411.833)" fill="none" stroke="#2e2e2e" stroke-miterlimit="10" stroke-width="1"/>
      <rect id="Rectangle_88" data-name="Rectangle 88" width="53.05" height="53.05" transform="translate(188.057 411.833)" fill="none" stroke="#2e2e2e" stroke-miterlimit="10" stroke-width="1"/>
      <rect id="Rectangle_89" data-name="Rectangle 89" width="53.05" height="53.05" transform="translate(241.107 411.833)" fill="none" stroke="#2e2e2e" stroke-miterlimit="10" stroke-width="1"/>
      <rect id="Rectangle_90" data-name="Rectangle 90" width="53.05" height="53.05" transform="translate(294.157 411.833)" fill="none" stroke="#2e2e2e" stroke-miterlimit="10" stroke-width="1"/>
      <rect id="Rectangle_91" data-name="Rectangle 91" width="53.05" height="53.05" transform="translate(347.207 411.833)" fill="none" stroke="#2e2e2e" stroke-miterlimit="10" stroke-width="1"/>
      <rect id="Rectangle_92" data-name="Rectangle 92" width="53.05" height="53.05" transform="translate(400.257 411.833)" fill="none" stroke="#2e2e2e" stroke-miterlimit="10" stroke-width="1"/>
      <rect id="Rectangle_93" data-name="Rectangle 93" width="53.05" height="53.05" transform="translate(453.307 411.833)" fill="none" stroke="#2e2e2e" stroke-miterlimit="10" stroke-width="1"/>
      <rect id="Rectangle_94" data-name="Rectangle 94" width="53.05" height="53.05" transform="translate(506.357 411.833)" fill="none" stroke="#2e2e2e" stroke-miterlimit="10" stroke-width="1"/>
      <rect id="Rectangle_95" data-name="Rectangle 95" width="53.05" height="53.05" transform="translate(559.407 411.833)" fill="none" stroke="#2e2e2e" stroke-miterlimit="10" stroke-width="1"/>
      <rect id="Rectangle_96" data-name="Rectangle 96" width="53.05" height="53.05" transform="translate(612.457 411.833)" fill="none" stroke="#2e2e2e" stroke-miterlimit="10" stroke-width="1"/>
      <rect id="Rectangle_97" data-name="Rectangle 97" width="53.05" height="53.05" transform="translate(135.134 464.547)" fill="none" stroke="#2e2e2e" stroke-miterlimit="10" stroke-width="1"/>
      <rect id="Rectangle_98" data-name="Rectangle 98" width="53.05" height="53.05" transform="translate(188.184 464.547)" fill="none" stroke="#2e2e2e" stroke-miterlimit="10" stroke-width="1"/>
      <rect id="Rectangle_99" data-name="Rectangle 99" width="53.05" height="53.05" transform="translate(241.234 464.547)" fill="none" stroke="#2e2e2e" stroke-miterlimit="10" stroke-width="1"/>
      <rect id="Rectangle_100" data-name="Rectangle 100" width="53.05" height="53.05" transform="translate(294.284 464.547)" fill="none" stroke="#2e2e2e" stroke-miterlimit="10" stroke-width="1"/>
      <rect id="Rectangle_101" data-name="Rectangle 101" width="53.05" height="53.05" transform="translate(347.334 464.547)" fill="none" stroke="#2e2e2e" stroke-miterlimit="10" stroke-width="1"/>
      <rect id="Rectangle_102" data-name="Rectangle 102" width="53.05" height="53.05" transform="translate(400.384 464.547)" fill="none" stroke="#2e2e2e" stroke-miterlimit="10" stroke-width="1"/>
      <rect id="Rectangle_103" data-name="Rectangle 103" width="53.05" height="53.05" transform="translate(453.434 464.547)" fill="none" stroke="#2e2e2e" stroke-miterlimit="10" stroke-width="1"/>
      <rect id="Rectangle_104" data-name="Rectangle 104" width="53.05" height="53.05" transform="translate(506.484 464.547)" fill="none" stroke="#2e2e2e" stroke-miterlimit="10" stroke-width="1"/>
      <rect id="Rectangle_105" data-name="Rectangle 105" width="53.05" height="53.05" transform="translate(559.534 464.547)" fill="none" stroke="#2e2e2e" stroke-miterlimit="10" stroke-width="1"/>
      <rect id="Rectangle_106" data-name="Rectangle 106" width="53.05" height="53.05" transform="translate(612.584 464.547)" fill="none" stroke="#2e2e2e" stroke-miterlimit="10" stroke-width="1"/>
      <rect id="Rectangle_107" data-name="Rectangle 107" width="53.05" height="53.05" transform="translate(135.261 517.262)" fill="none" stroke="#2e2e2e" stroke-miterlimit="10" stroke-width="1"/>
      <rect id="Rectangle_108" data-name="Rectangle 108" width="53.05" height="53.05" transform="translate(188.311 517.262)" fill="none" stroke="#2e2e2e" stroke-miterlimit="10" stroke-width="1"/>
      <rect id="Rectangle_109" data-name="Rectangle 109" width="53.05" height="53.05" transform="translate(241.361 517.262)" fill="none" stroke="#2e2e2e" stroke-miterlimit="10" stroke-width="1"/>
      <rect id="Rectangle_110" data-name="Rectangle 110" width="53.05" height="53.05" transform="translate(294.411 517.262)" fill="none" stroke="#2e2e2e" stroke-miterlimit="10" stroke-width="1"/>
      <rect id="Rectangle_111" data-name="Rectangle 111" width="53.05" height="53.05" transform="translate(347.461 517.262)" fill="none" stroke="#2e2e2e" stroke-miterlimit="10" stroke-width="1"/>
      <rect id="Rectangle_112" data-name="Rectangle 112" width="53.05" height="53.05" transform="translate(400.511 517.262)" fill="none" stroke="#2e2e2e" stroke-miterlimit="10" stroke-width="1"/>
      <rect id="Rectangle_113" data-name="Rectangle 113" width="53.05" height="53.05" transform="translate(453.561 517.262)" fill="none" stroke="#2e2e2e" stroke-miterlimit="10" stroke-width="1"/>
      <rect id="Rectangle_114" data-name="Rectangle 114" width="53.05" height="53.05" transform="translate(506.611 517.262)" fill="none" stroke="#2e2e2e" stroke-miterlimit="10" stroke-width="1"/>
      <rect id="Rectangle_115" data-name="Rectangle 115" width="53.05" height="53.05" transform="translate(559.661 517.262)" fill="none" stroke="#2e2e2e" stroke-miterlimit="10" stroke-width="1"/>
      <rect id="Rectangle_116" data-name="Rectangle 116" width="53.05" height="53.05" transform="translate(612.71 517.26)" fill="none" stroke="#2e2e2e" stroke-miterlimit="10" stroke-width="1"/>
      <rect id="Rectangle_117" data-name="Rectangle 117" width="53.05" height="30.52" transform="translate(135.39 569.98)" fill="none" stroke="#2e2e2e" stroke-miterlimit="10" stroke-width="1"/>
      <rect id="Rectangle_118" data-name="Rectangle 118" width="53.05" height="30.52" transform="translate(188.44 569.98)" fill="none" stroke="#2e2e2e" stroke-miterlimit="10" stroke-width="1"/>
      <rect id="Rectangle_119" data-name="Rectangle 119" width="53.05" height="30.52" transform="translate(241.49 569.98)" fill="none" stroke="#2e2e2e" stroke-miterlimit="10" stroke-width="1"/>
      <rect id="Rectangle_120" data-name="Rectangle 120" width="53.05" height="30.52" transform="translate(294.54 569.98)" fill="none" stroke="#2e2e2e" stroke-miterlimit="10" stroke-width="1"/>
      <rect id="Rectangle_121" data-name="Rectangle 121" width="53.05" height="30.52" transform="translate(347.59 569.98)" fill="none" stroke="#2e2e2e" stroke-miterlimit="10" stroke-width="1"/>
      <rect id="Rectangle_122" data-name="Rectangle 122" width="53.05" height="30.52" transform="translate(400.64 569.98)" fill="none" stroke="#2e2e2e" stroke-miterlimit="10" stroke-width="1"/>
      <rect id="Rectangle_123" data-name="Rectangle 123" width="53.05" height="30.52" transform="translate(453.69 569.98)" fill="none" stroke="#2e2e2e" stroke-miterlimit="10" stroke-width="1"/>
      <rect id="Rectangle_124" data-name="Rectangle 124" width="53.05" height="30.52" transform="translate(506.74 569.98)" fill="none" stroke="#2e2e2e" stroke-miterlimit="10" stroke-width="1"/>
      <rect id="Rectangle_125" data-name="Rectangle 125" width="53.05" height="30.52" transform="translate(559.79 569.98)" fill="none" stroke="#2e2e2e" stroke-miterlimit="10" stroke-width="1"/>
      <path id="Tracé_63" data-name="Tracé 63" d="M665.76,569.98v.33h-.26V600.5H612.84V569.98Z" fill="none" stroke="#2e2e2e" stroke-miterlimit="10" stroke-width="1"/>
    </g>
    <g id="Calque_1" data-name="Calque 1">
      <path id="Tracé_64" data-name="Tracé 64" d="M437.646,309.314l-18.2,32.054L357.178,231.716,166.044,568.285H295.455c0,17.7,14.114,32.054,31.525,32.054H166.044a31.43,31.43,0,0,1-27.3-16.03,32.519,32.519,0,0,1,0-32.051L329.883,215.689a31.267,31.267,0,0,1,54.6,0Z"/>
      <path id="Tracé_65" data-name="Tracé 65" d="M575.622,552.258l-119.77-210.89-18.206-32.054-18.2,32.054L299.684,552.258a32.519,32.519,0,0,0,0,32.051,31.43,31.43,0,0,0,27.3,16.03H548.287a31.44,31.44,0,0,0,27.307-16.024,32.521,32.521,0,0,0,0-32.057ZM326.98,568.285,437.646,373.422,548.287,568.285Z" fill="#ff5c00"/>
      <path id="Tracé_66" data-name="Tracé 66" d="M661.252,584.312a31.432,31.432,0,0,1-27.3,16.027H548.287c17.41,0,31.525-14.351,31.525-32.054h54.079L480.442,298.055l-24.59,43.313-18.206-32.054,15.5-27.286a31.267,31.267,0,0,1,54.6,0l153.5,270.23A32.523,32.523,0,0,1,661.252,584.312Z"/>
    </g>
    <g id="Calque_3" data-name="Calque 3">
      <rect id="Rectangle_126" data-name="Rectangle 126" width="24" height="63" transform="translate(641 617)"/>
    </g>
    <g id="Calque_2" data-name="Calque 2">
      <rect id="Rectangle_127" data-name="Rectangle 127" width="261" height="63" transform="translate(384.985 617)" fill="#ff5c00"/>
      <g id="Groupe_45" data-name="Groupe 45">
        <rect id="Rectangle_128" data-name="Rectangle 128" width="2" height="57" transform="translate(394.985 620)"/>
        <rect id="Rectangle_129" data-name="Rectangle 129" width="1" height="41" transform="translate(398.089 620)"/>
        <rect id="Rectangle_130" data-name="Rectangle 130" width="2" height="41" transform="translate(401.192 620)"/>
        <rect id="Rectangle_131" data-name="Rectangle 131" width="3" height="41" transform="translate(404.296 620)"/>
        <rect id="Rectangle_132" data-name="Rectangle 132" width="1" height="41" transform="translate(407.4 620)"/>
        <rect id="Rectangle_133" data-name="Rectangle 133" width="1" height="41" transform="translate(410.504 620)"/>
        <rect id="Rectangle_134" data-name="Rectangle 134" width="2" height="41" transform="translate(413.608 620)"/>
        <rect id="Rectangle_135" data-name="Rectangle 135" width="1" height="41" transform="translate(416.712 620)"/>
        <rect id="Rectangle_136" data-name="Rectangle 136" width="1" height="41" transform="translate(419.816 620)"/>
        <rect id="Rectangle_137" data-name="Rectangle 137" width="1" height="41" transform="translate(422.92 620)"/>
        <rect id="Rectangle_138" data-name="Rectangle 138" width="2" height="41" transform="translate(426.024 620)"/>
        <rect id="Rectangle_139" data-name="Rectangle 139" width="3" height="41" transform="translate(444.647 620)"/>
        <rect id="Rectangle_140" data-name="Rectangle 140" width="2" height="41" transform="translate(447.751 620)"/>
        <rect id="Rectangle_141" data-name="Rectangle 141" width="1" height="41" transform="translate(450.855 620)"/>
        <rect id="Rectangle_142" data-name="Rectangle 142" width="1" height="41" transform="translate(453.959 620)"/>
        <rect id="Rectangle_143" data-name="Rectangle 143" width="6" height="41" transform="translate(457.063 620)"/>
        <rect id="Rectangle_144" data-name="Rectangle 144" width="5" height="41" transform="translate(460.166 620)"/>
        <rect id="Rectangle_145" data-name="Rectangle 145" width="2" height="41" transform="translate(463.27 620)"/>
        <rect id="Rectangle_146" data-name="Rectangle 146" width="1" height="41" transform="translate(466.374 620)"/>
        <rect id="Rectangle_147" data-name="Rectangle 147" width="1" height="41" transform="translate(469.478 620)"/>
        <rect id="Rectangle_148" data-name="Rectangle 148" width="3" height="41" transform="translate(472.582 620)"/>
        <rect id="Rectangle_149" data-name="Rectangle 149" width="2" height="41" transform="translate(475.686 620)"/>
        <rect id="Rectangle_150" data-name="Rectangle 150" width="4" height="41" transform="translate(433.127 661) rotate(180)"/>
        <rect id="Rectangle_151" data-name="Rectangle 151" width="1" height="41" transform="translate(432.231 620)"/>
        <rect id="Rectangle_152" data-name="Rectangle 152" width="2" height="41" transform="translate(435.335 620)"/>
        <rect id="Rectangle_153" data-name="Rectangle 153" width="1" height="41" transform="translate(438.439 620)"/>
        <rect id="Rectangle_154" data-name="Rectangle 154" width="1" height="41" transform="translate(441.543 620)"/>
        <rect id="Rectangle_155" data-name="Rectangle 155" width="1.942" height="41" transform="translate(632.823 661) rotate(180)"/>
        <rect id="Rectangle_156" data-name="Rectangle 156" width="2.913" height="41" transform="translate(630.69 661) rotate(180)"/>
        <rect id="Rectangle_157" data-name="Rectangle 157" width="0.971" height="41" transform="translate(625.644 661) rotate(180)"/>
        <rect id="Rectangle_158" data-name="Rectangle 158" width="0.971" height="41" transform="translate(622.54 661) rotate(180)"/>
        <rect id="Rectangle_159" data-name="Rectangle 159" width="1.942" height="41" transform="translate(620.407 661) rotate(180)"/>
        <rect id="Rectangle_160" data-name="Rectangle 160" width="0.971" height="41" transform="translate(616.332 661) rotate(180)"/>
        <rect id="Rectangle_161" data-name="Rectangle 161" width="0.971" height="41" transform="translate(613.228 661) rotate(180)"/>
        <rect id="Rectangle_162" data-name="Rectangle 162" width="0.971" height="41" transform="translate(610.124 661) rotate(180)"/>
        <rect id="Rectangle_163" data-name="Rectangle 163" width="1.942" height="41" transform="translate(607.992 661) rotate(180)"/>
        <rect id="Rectangle_164" data-name="Rectangle 164" width="2.913" height="41" transform="translate(590.339 661) rotate(180)"/>
        <rect id="Rectangle_165" data-name="Rectangle 165" width="1.942" height="41" transform="translate(586.264 661) rotate(180)"/>
        <rect id="Rectangle_166" data-name="Rectangle 166" width="0.971" height="41" transform="translate(582.189 661) rotate(180)"/>
        <rect id="Rectangle_167" data-name="Rectangle 167" width="0.971" height="41" transform="translate(579.085 661) rotate(180)"/>
        <rect id="Rectangle_168" data-name="Rectangle 168" width="5.826" height="41" transform="translate(580.837 661) rotate(180)"/>
        <rect id="Rectangle_169" data-name="Rectangle 169" width="4.855" height="41" transform="translate(576.762 661) rotate(180)"/>
        <rect id="Rectangle_170" data-name="Rectangle 170" width="1.942" height="41" transform="translate(570.745 661) rotate(180)"/>
        <rect id="Rectangle_171" data-name="Rectangle 171" width="0.971" height="41" transform="translate(566.67 661) rotate(180)"/>
        <rect id="Rectangle_172" data-name="Rectangle 172" width="0.971" height="41" transform="translate(563.566 661) rotate(180)"/>
        <rect id="Rectangle_173" data-name="Rectangle 173" width="2.913" height="41" transform="translate(562.404 661) rotate(180)"/>
        <rect id="Rectangle_174" data-name="Rectangle 174" width="1.942" height="41" transform="translate(558.329 661) rotate(180)"/>
        <rect id="Rectangle_175" data-name="Rectangle 175" width="3.884" height="41" transform="translate(602.946 620)"/>
        <rect id="Rectangle_176" data-name="Rectangle 176" width="0.971" height="41" transform="translate(600.813 661) rotate(180)"/>
        <rect id="Rectangle_177" data-name="Rectangle 177" width="1.942" height="41" transform="translate(598.68 661) rotate(180)"/>
        <rect id="Rectangle_178" data-name="Rectangle 178" width="0.971" height="41" transform="translate(594.605 661) rotate(180)"/>
        <rect id="Rectangle_179" data-name="Rectangle 179" width="0.971" height="41" transform="translate(591.501 661) rotate(180)"/>
        <rect id="Rectangle_180" data-name="Rectangle 180" width="1.942" height="41" transform="translate(555.225 661) rotate(180)"/>
        <rect id="Rectangle_181" data-name="Rectangle 181" width="2.913" height="41" transform="translate(553.092 661) rotate(180)"/>
        <rect id="Rectangle_182" data-name="Rectangle 182" width="0.971" height="41" transform="translate(548.047 661) rotate(180)"/>
        <rect id="Rectangle_183" data-name="Rectangle 183" width="0.971" height="41" transform="translate(544.943 661) rotate(180)"/>
        <rect id="Rectangle_184" data-name="Rectangle 184" width="1.942" height="41" transform="translate(542.81 661) rotate(180)"/>
        <rect id="Rectangle_185" data-name="Rectangle 185" width="0.971" height="41" transform="translate(538.735 661) rotate(180)"/>
        <rect id="Rectangle_186" data-name="Rectangle 186" width="0.971" height="41" transform="translate(535.631 661) rotate(180)"/>
        <rect id="Rectangle_187" data-name="Rectangle 187" width="0.971" height="41" transform="translate(532.527 661) rotate(180)"/>
        <rect id="Rectangle_188" data-name="Rectangle 188" width="1.942" height="41" transform="translate(530.394 661) rotate(180)"/>
        <rect id="Rectangle_189" data-name="Rectangle 189" width="2.913" height="41" transform="translate(512.742 661) rotate(180)"/>
        <rect id="Rectangle_190" data-name="Rectangle 190" width="1.942" height="41" transform="translate(508.667 661) rotate(180)"/>
        <rect id="Rectangle_191" data-name="Rectangle 191" width="0.971" height="41" transform="translate(504.592 661) rotate(180)"/>
        <rect id="Rectangle_192" data-name="Rectangle 192" width="0.971" height="41" transform="translate(501.488 661) rotate(180)"/>
        <rect id="Rectangle_193" data-name="Rectangle 193" width="5.826" height="41" transform="translate(503.239 661) rotate(180)"/>
        <rect id="Rectangle_194" data-name="Rectangle 194" width="4.855" height="41" transform="translate(499.164 661) rotate(180)"/>
        <rect id="Rectangle_195" data-name="Rectangle 195" width="1.942" height="41" transform="translate(493.147 661) rotate(180)"/>
        <rect id="Rectangle_196" data-name="Rectangle 196" width="0.971" height="41" transform="translate(489.073 661) rotate(180)"/>
        <rect id="Rectangle_197" data-name="Rectangle 197" width="0.971" height="41" transform="translate(485.969 661) rotate(180)"/>
        <rect id="Rectangle_198" data-name="Rectangle 198" width="2.913" height="41" transform="translate(484.807 661) rotate(180)"/>
        <rect id="Rectangle_199" data-name="Rectangle 199" width="1.942" height="41" transform="translate(480.732 661) rotate(180)"/>
        <rect id="Rectangle_200" data-name="Rectangle 200" width="3.884" height="41" transform="translate(525.348 620)"/>
        <rect id="Rectangle_201" data-name="Rectangle 201" width="0.971" height="41" transform="translate(523.215 661) rotate(180)"/>
        <rect id="Rectangle_202" data-name="Rectangle 202" width="1.942" height="41" transform="translate(521.082 661) rotate(180)"/>
        <rect id="Rectangle_203" data-name="Rectangle 203" width="0.971" height="41" transform="translate(517.008 661) rotate(180)"/>
        <rect id="Rectangle_204" data-name="Rectangle 204" width="0.971" height="41" transform="translate(513.904 661) rotate(180)"/>
        <rect id="Rectangle_205" data-name="Rectangle 205" width="2" height="57" transform="translate(633.985 620)"/>
      </g>
      <text id="AYTO" transform="translate(434.526 674.83)" font-size="13" font-family="NotoSans-Bold, Noto Sans" font-weight="700" letter-spacing="3em"><tspan x="0" y="0">AYTO</tspan></text>
      <text id="_286" data-name="286" transform="translate(516.526 698.633)" fill="#2e2e2e" font-size="5.481" font-family="LW, Linowrite"><tspan x="0" y="0">286</tspan></text>
      <text id="_63" data-name="63" transform="translate(689.526 648.633)" fill="#2e2e2e" font-size="5.481" font-family="LW, Linowrite"><tspan x="0" y="0">63</tspan></text>
      <text id="_53" data-name="53" transform="translate(686.526 228.633)" fill="#2e2e2e" font-size="5.481" font-family="LW, Linowrite"><tspan x="0" y="0">53</tspan></text>
      <text id="_53-2" data-name="53" transform="translate(635.526 177.633)" fill="#2e2e2e" font-size="5.481" font-family="LW, Linowrite"><tspan x="0" y="0">53</tspan></text>
      <text id="_409" data-name="409" transform="translate(729.526 399.633)" fill="#2e2e2e" font-size="5.481" font-family="LW, Linowrite"><tspan x="0" y="0">409</tspan></text>
      <text id="_291" data-name="291" transform="translate(729.526 455.633)" fill="#2e2e2e" font-size="5.481" font-family="LW, Linowrite"><tspan x="0" y="0">291</tspan></text>
      <text id="_8" data-name="8" transform="translate(729.526 605.633)" fill="#2e2e2e" font-size="5.481" font-family="LW, Linowrite"><tspan x="0" y="0">8</tspan></text>
      <text id="_36" data-name="36" transform="translate(729.526 219.633)" fill="#2e2e2e" font-size="5.481" font-family="LW, Linowrite"><tspan x="0" y="0">36</tspan></text>
      <text id="_30" data-name="30" transform="translate(729.526 251.633)" fill="#2e2e2e" font-size="5.481" font-family="LW, Linowrite"><tspan x="0" y="0">30</tspan></text>
      <text id="_46" data-name="46" transform="translate(729.526 288.633)" fill="#2e2e2e" font-size="5.481" font-family="LW, Linowrite"><tspan x="0" y="0">46</tspan></text>
      <text id="DEVELOPPER" transform="translate(657.675 666.696) rotate(-90)" fill="#ff5c00" font-size="5.977" font-family="NotoSans-Bold, Noto Sans" font-weight="700"><tspan x="0" y="0">DEVELOPPER</tspan></text>
      <rect id="Rectangle_206" data-name="Rectangle 206" width="3" height="63" transform="translate(379 617)"/>
      <text id="Build_your_next_Vue.js_application_with_confidence_using_NuxtJS._An_open_source_framework_making_web_development_simple_and_powerful." data-name="Build your next Vue.js application with confidence using 
NuxtJS. An open source framework making web 
development simple and powerful." transform="translate(141.526 632.633)" font-size="8" font-family="LW, Linowrite"><tspan x="0" y="0">Build your next Vue.js application with confidence using </tspan><tspan x="0" y="9.6">NuxtJS. An open source framework making web </tspan><tspan x="0" y="19.2">development simple and powerful.</tspan></text>
      <g id="Groupe_46" data-name="Groupe 46">
        <rect id="Rectangle_207" data-name="Rectangle 207" width="0.944" height="2.889" transform="translate(136.056 627)"/>
        <rect id="Rectangle_208" data-name="Rectangle 208" width="0.944" height="2.889" transform="translate(136.056 630.852)"/>
        <rect id="Rectangle_209" data-name="Rectangle 209" width="0.944" height="2.889" transform="translate(136.056 634.704)"/>
        <rect id="Rectangle_210" data-name="Rectangle 210" width="0.944" height="2.889" transform="translate(136.056 638.556)"/>
        <rect id="Rectangle_211" data-name="Rectangle 211" width="0.944" height="2.889" transform="translate(136.056 642.407)"/>
        <rect id="Rectangle_212" data-name="Rectangle 212" width="0.944" height="2.889" transform="translate(136.056 646.259)"/>
        <rect id="Rectangle_213" data-name="Rectangle 213" width="0.944" height="2.889" transform="translate(136.056 650.111)"/>
      </g>
      <text id="The_Intuitive_Vue_Framework" data-name="The Intuitive Vue Framework" transform="translate(136.526 622.633)" font-size="9" font-family="LW, Linowrite"><tspan x="0" y="0">The Intuitive Vue Framework</tspan></text>
      <text id="AYTO_DESING_-_DEVELOPPEMENT_WEB" data-name="AYTO DESING - DEVELOPPEMENT WEB" transform="translate(89.944 595.79) rotate(-90)" fill="#2e2e2e" font-size="9" font-family="LW, Linowrite"><tspan x="0" y="0">AYTO DESING - DEVELOPPEMENT WEB</tspan></text>
      <text id="VUEJS" transform="translate(107.944 297.79) rotate(-90)" fill="#2e2e2e" font-size="9" font-family="LW, Linowrite"><tspan x="0" y="0">VUEJS</tspan></text>
      <text id="JS" transform="translate(107.944 338.79) rotate(-90)" fill="#2e2e2e" font-size="9" font-family="LW, Linowrite"><tspan x="0" y="0">JS</tspan></text>
      <text id="CSS" transform="translate(107.944 393.79) rotate(-90)" fill="#2e2e2e" font-size="9" font-family="LW, Linowrite"><tspan x="0" y="0">CSS</tspan></text>
      <text id="NUXTJS" transform="translate(107.944 244.79) rotate(-90)" fill="#2e2e2e" font-size="9" font-family="LW, Linowrite"><tspan x="0" y="0">NUXTJS</tspan></text>
      <rect id="Rectangle_214" data-name="Rectangle 214" width="17.5" height="401" transform="translate(96.5 199)" fill="none" stroke="#2e2e2e" stroke-miterlimit="10" stroke-width="1"/>
      <line id="Ligne_79" data-name="Ligne 79" x1="18" transform="translate(96.5 253.5)" fill="none" stroke="#2e2e2e" stroke-miterlimit="10" stroke-width="1"/>
      <line id="Ligne_80" data-name="Ligne 80" x1="18" transform="translate(96 306.5)" fill="none" stroke="#2e2e2e" stroke-miterlimit="10" stroke-width="1"/>
      <line id="Ligne_81" data-name="Ligne 81" x1="18" transform="translate(96 359.5)" fill="none" stroke="#2e2e2e" stroke-miterlimit="10" stroke-width="1"/>
      <line id="Ligne_82" data-name="Ligne 82" x1="18" transform="translate(96 411.5)" fill="none" stroke="#2e2e2e" stroke-miterlimit="10" stroke-width="1"/>
      <text id="HTML" transform="translate(107.944 452.79) rotate(-90)" fill="#2e2e2e" font-size="9" font-family="LW, Linowrite"><tspan x="0" y="0">HTML</tspan></text>
      <line id="Ligne_83" data-name="Ligne 83" x1="18" transform="translate(96 464.5)" fill="none" stroke="#2e2e2e" stroke-miterlimit="10" stroke-width="1"/>
      <path id="Tracé_67" data-name="Tracé 67" d="M80.5,201l-1,399h17" fill="none" stroke="#2e2e2e" stroke-miterlimit="10" stroke-width="1"/>
    </g>
    <g id="Calque_5" data-name="Calque 5">
      <g id="Groupe_47" data-name="Groupe 47">
        <line id="Ligne_84" data-name="Ligne 84" x2="286" transform="translate(378.75 689.5)" fill="none" stroke="#2e2e2e" stroke-miterlimit="10" stroke-width="1"/>
        <line id="Ligne_85" data-name="Ligne 85" y2="14" transform="translate(379.25 682.5)" fill="none" stroke="#2e2e2e" stroke-miterlimit="10" stroke-width="1"/>
        <line id="Ligne_86" data-name="Ligne 86" y2="14" transform="translate(664.25 682.5)" fill="none" stroke="#2e2e2e" stroke-miterlimit="10" stroke-width="1"/>
      </g>
      <g id="Groupe_48" data-name="Groupe 48">
        <line id="Ligne_87" data-name="Ligne 87" y1="63" transform="translate(679.75 616.5)" fill="none" stroke="#2e2e2e" stroke-miterlimit="10" stroke-width="1"/>
        <line id="Ligne_88" data-name="Ligne 88" x2="14" transform="translate(672.75 679.39)" fill="none" stroke="#2e2e2e" stroke-miterlimit="10" stroke-width="1"/>
        <line id="Ligne_89" data-name="Ligne 89" x2="14" transform="translate(672.75 616.61)" fill="none" stroke="#2e2e2e" stroke-miterlimit="10" stroke-width="1"/>
      </g>
      <line id="Ligne_90" data-name="Ligne 90" y2="3" transform="translate(521.75 689.5)" fill="none" stroke="#2e2e2e" stroke-miterlimit="10" stroke-width="1"/>
      <line id="Ligne_91" data-name="Ligne 91" x2="3" transform="translate(680 648)" fill="none" stroke="#2e2e2e" stroke-miterlimit="10" stroke-width="1"/>
      <g id="Groupe_49" data-name="Groupe 49">
        <line id="Ligne_92" data-name="Ligne 92" y1="53.5" transform="translate(679.75 200.5)" fill="none" stroke="#2e2e2e" stroke-miterlimit="10" stroke-width="1"/>
        <line id="Ligne_93" data-name="Ligne 93" x2="14" transform="translate(672.75 253.906)" fill="none" stroke="#2e2e2e" stroke-miterlimit="10" stroke-width="1"/>
        <line id="Ligne_94" data-name="Ligne 94" x2="14" transform="translate(672.75 200.594)" fill="none" stroke="#2e2e2e" stroke-miterlimit="10" stroke-width="1"/>
      </g>
      <line id="Ligne_95" data-name="Ligne 95" x2="3" transform="translate(680 227.25)" fill="none" stroke="#2e2e2e" stroke-miterlimit="10" stroke-width="1"/>
      <g id="Groupe_50" data-name="Groupe 50">
        <line id="Ligne_96" data-name="Ligne 96" x1="53.5" transform="translate(612 184.25)" fill="none" stroke="#2e2e2e" stroke-miterlimit="10" stroke-width="1"/>
        <line id="Ligne_97" data-name="Ligne 97" y1="14" transform="translate(665.406 177.25)" fill="none" stroke="#2e2e2e" stroke-miterlimit="10" stroke-width="1"/>
        <line id="Ligne_98" data-name="Ligne 98" y1="14" transform="translate(612.094 177.25)" fill="none" stroke="#2e2e2e" stroke-miterlimit="10" stroke-width="1"/>
      </g>
      <line id="Ligne_99" data-name="Ligne 99" y1="3" transform="translate(638.75 181)" fill="none" stroke="#2e2e2e" stroke-miterlimit="10" stroke-width="1"/>
      <line id="Ligne_100" data-name="Ligne 100" y1="409.5" transform="translate(718.75 199.5)" fill="none" stroke="#2e2e2e" stroke-miterlimit="10" stroke-width="1"/>
      <line id="Ligne_101" data-name="Ligne 101" x2="14" transform="translate(711.75 608.284)" fill="none" stroke="#2e2e2e" stroke-miterlimit="10" stroke-width="1"/>
      <line id="Ligne_102" data-name="Ligne 102" x2="14" transform="translate(711.75 600.5)" fill="none" stroke="#2e2e2e" stroke-miterlimit="10" stroke-width="1"/>
      <line id="Ligne_103" data-name="Ligne 103" x2="14" transform="translate(711.75 200.2)" fill="none" stroke="#2e2e2e" stroke-miterlimit="10" stroke-width="1"/>
      <line id="Ligne_104" data-name="Ligne 104" x2="3" transform="translate(719 399.75)" fill="none" stroke="#2e2e2e" stroke-miterlimit="10" stroke-width="1"/>
      <line id="Ligne_105" data-name="Ligne 105" x2="14" transform="translate(711.75 235.5)" fill="none" stroke="#2e2e2e" stroke-miterlimit="10" stroke-width="1"/>
      <line id="Ligne_106" data-name="Ligne 106" x2="14" transform="translate(711.75 265.5)" fill="none" stroke="#2e2e2e" stroke-miterlimit="10" stroke-width="1"/>
      <line id="Ligne_107" data-name="Ligne 107" x2="14" transform="translate(711.75 309.5)" fill="none" stroke="#2e2e2e" stroke-miterlimit="10" stroke-width="1"/>
    </g>
  </g>
</svg>
