<svg xmlns="http://www.w3.org/2000/svg" width="1103" height="771" viewBox="0 0 1103 771">
  <g id="Groupe_61" data-name="Groupe 61" transform="translate(-344 -4614)">
    <rect id="Rectangle_45" data-name="Rectangle 45" width="1103" height="771" transform="translate(344 4614)" fill="#eae9c8"/>
    <g id="Groupe_43" data-name="Groupe 43" transform="translate(499.201 4387.724)">
      <text id="Hypertext_Markup_Language_HTML_is_the_standard_markup_language_for_documents_designed_to_be_displayed_in_a_web_browser._It_can_be_assisted_by_technologies_such_as_Cascading_Style_Sheets_CSS_and_scripting_languages_such_as_JavaScript." data-name="Hypertext Markup Language (HTML) is the
standard markup language for documents 
designed to be displayed in a web browser. 
It can be assisted by technologies such as 
Cascading Style Sheets (CSS) and 
scripting languages such as JavaScript." transform="translate(192 382.594)" font-size="18.97" font-family="NasalizationRg-Regular, Nasalization"><tspan x="0" y="0">Hypertext Markup Language (HTML) is the</tspan><tspan x="0" y="22.764">standard markup language for documents </tspan><tspan x="0" y="45.528">designed to be displayed in a web browser. </tspan><tspan x="0" y="68.292">It can be assisted by technologies such as </tspan><tspan x="0" y="91.056">Cascading Style Sheets (CSS) and </tspan><tspan x="0" y="113.82">scripting languages such as JavaScript.</tspan></text>
      <path id="Tracé_23" data-name="Tracé 23" d="M313.55,744.09c8.68-1.46,7.24-.01,8.69-8.69,1.46,8.68.02,7.25,8.69,8.69-8.69,1.47-7.25.01-8.69,8.69C320.77,744.1,322.22,745.53,313.55,744.09Z"/>
      <path id="Tracé_24" data-name="Tracé 24" d="M320.67,715.11c8.69-1.46,7.24-.01,8.69-8.69,1.46,8.69.02,7.25,8.69,8.69-8.69,1.47-7.24.01-8.69,8.7C327.89,715.12,329.34,716.56,320.67,715.11Z" fill="#fc3d21"/>
      <path id="Tracé_25" data-name="Tracé 25" d="M339.09,724.2c8.68-1.47,7.24-.01,8.69-8.69,1.46,8.68.02,7.25,8.69,8.69-8.69,1.46-7.25.01-8.69,8.69C346.31,724.21,347.76,725.64,339.09,724.2Z" fill="#fc3d21"/>
      <path id="Tracé_26" data-name="Tracé 26" d="M385.15,667.63c2.07,12.27.03,10.24,12.29,12.28-12.28,2.08-10.24.02-12.29,12.29-2.07-12.28-.03-10.25-12.29-12.29C385.15,677.84,383.11,679.9,385.15,667.63Z"/>
      <path id="Tracé_27" data-name="Tracé 27" d="M383.78,640.95c8.69-1.47,7.25-.01,8.69-8.69,1.47,8.68.02,7.25,8.69,8.69-8.68,1.46-7.24.01-8.69,8.69C391.01,640.96,392.45,642.39,383.78,640.95Z"/>
      <path id="Tracé_28" data-name="Tracé 28" d="M442.67,644.88c-8.69,1.46-7.25.01-8.7,8.69-1.46-8.68-.02-7.25-8.69-8.69,8.69-1.47,7.25-.01,8.69-8.69C435.44,644.87,434,643.44,442.67,644.88Z"/>
      <path id="Tracé_29" data-name="Tracé 29" d="M441.59,697.84c2.07,12.28.03,10.25,12.29,12.29-12.29,2.07-10.25.01-12.29,12.29-2.07-12.28-.03-10.25-12.29-12.29C441.58,708.06,439.54,710.11,441.59,697.84Z"/>
      <path id="Tracé_30" data-name="Tracé 30" d="M447.14,654.46c8.69-1.47,7.24-.01,8.69-8.7,1.47,8.69.02,7.25,8.69,8.7-8.69,1.46-7.24.01-8.69,8.69C454.37,654.46,455.81,655.9,447.14,654.46Z"/>
      <path id="Tracé_31" data-name="Tracé 31" d="M461.14,729.6c8.69-1.46,7.24-.01,8.69-8.69,1.46,8.69.02,7.25,8.69,8.69-8.69,1.47-7.25.01-8.69,8.69C468.36,729.61,469.81,731.05,461.14,729.6Z"/>
      <path id="Tracé_32" data-name="Tracé 32" d="M471.94,710.94c8.69-1.47,7.25-.01,8.69-8.69,1.47,8.68.03,7.25,8.7,8.69-8.69,1.46-7.25.01-8.7,8.69C479.17,710.94,480.61,712.38,471.94,710.94Z"/>
      <path id="Tracé_33" data-name="Tracé 33" d="M576.31,862.94H246.13c18.79-68.01,81.11-118.82,156.2-122.55,4.36-32.66,6.91-68.06,8.23-102.28-3.27-21.78-1.65-18.1-28.84-22.62,29.94-5.05,25.03-.06,29.98-29.86v-.04c.01-1.1.01-2.19.01-3.27,0,1.05,0,2.11.01,3.17v.02c5.06,29.96.08,25,30,29.98-27.27,4.6-25.63.87-28.85,22.68,1.31,34.22,3.87,69.62,8.24,102.27C495.75,744.57,557.6,795.23,576.31,862.94Z"/>
      <path id="Tracé_34" data-name="Tracé 34" d="M626.72,884.07l-.15-.28-8.03-13.88L441.07,562.51c-.38-.65-.68-1.22-1.03-1.85l-5.53-9.59-.29-.44c-5.9-9.78-11.1-15.34-22.71-15.34-11.55,0-16.8,5.49-22.66,15.15-1.56,2.58-3.19,5.51-4.97,8.66l-1.97,3.38s.01.02,0,.03L204.44,869.91l-7.72,13.35c-4.89,9.23-6.6,16.3-1.09,25.84,5.65,9.78,12.82,11.69,23.72,12H603.6c10.91-.3,18.1-2.21,23.75-12C632.7,899.84,631.29,892.92,626.72,884.07Zm-33.37-20.22c-1.85,3.2-2.76,3.73-4.19,4.38s-3.89,1.21-8.69,1.34H242.13c-4.81-.13-7.26-.7-8.69-1.34s-2.34-1.18-4.19-4.38c-1.75-3.04-1.81-4.19-1.72-5.59.09-1.37.72-3.61,2.53-7.16.04-.07.06-.12.1-.19l.03-.03,5.78-9.97,2.09-3.65a.138.138,0,0,0,.04-.03L392.6,569.57l1.96-3.38,5.32-9.18c2.37-3.81,4.22-5.99,5.47-6.91,1.15-.86,1.97-1.39,4.68-1.5.39-.02.81,0,1.28,0,3.8,0,4.65.51,5.97,1.5,1.24.93,3.11,3.13,5.5,6.97l7.19,12.47L584.5,837.23l.03.03,7.88,13.62.15.31c1.78,3.5,2.42,5.71,2.5,7.07C595.15,859.66,595.1,860.81,593.35,863.85Z"/>
      <path id="Tracé_35" data-name="Tracé 35" d="M313.55,744.09c8.68-1.46,7.24-.01,8.69-8.69,1.46,8.68.02,7.25,8.69,8.69-8.69,1.47-7.25.01-8.69,8.69C320.77,744.1,322.22,745.53,313.55,744.09Z" fill="#0065b9"/>
      <path id="Tracé_36" data-name="Tracé 36" d="M320.67,715.11c8.69-1.46,7.24-.01,8.69-8.69,1.46,8.69.02,7.25,8.69,8.69-8.69,1.47-7.24.01-8.69,8.7C327.89,715.12,329.34,716.56,320.67,715.11Z" fill="#fc3d21"/>
      <path id="Tracé_37" data-name="Tracé 37" d="M339.09,724.2c8.68-1.47,7.24-.01,8.69-8.69,1.46,8.68.02,7.25,8.69,8.69-8.69,1.46-7.25.01-8.69,8.69C346.31,724.21,347.76,725.64,339.09,724.2Z" fill="#fc3d21"/>
      <path id="Tracé_38" data-name="Tracé 38" d="M385.15,667.63c2.07,12.27.03,10.24,12.29,12.28-12.28,2.08-10.24.02-12.29,12.29-2.07-12.28-.03-10.25-12.29-12.29C385.15,677.84,383.11,679.9,385.15,667.63Z" fill="#0065b9"/>
      <path id="Tracé_39" data-name="Tracé 39" d="M383.78,640.95c8.69-1.47,7.25-.01,8.69-8.69,1.47,8.68.02,7.25,8.69,8.69-8.68,1.46-7.24.01-8.69,8.69C391.01,640.96,392.45,642.39,383.78,640.95Z" fill="#0065b9"/>
      <path id="Tracé_40" data-name="Tracé 40" d="M442.67,644.88c-8.69,1.46-7.25.01-8.7,8.69-1.46-8.68-.02-7.25-8.69-8.69,8.69-1.47,7.25-.01,8.69-8.69C435.44,644.87,434,643.44,442.67,644.88Z" fill="#0065b9"/>
      <path id="Tracé_41" data-name="Tracé 41" d="M441.59,697.84c2.07,12.28.03,10.25,12.29,12.29-12.29,2.07-10.25.01-12.29,12.29-2.07-12.28-.03-10.25-12.29-12.29C441.58,708.06,439.54,710.11,441.59,697.84Z" fill="#0065b9"/>
      <path id="Tracé_42" data-name="Tracé 42" d="M447.14,654.46c8.69-1.47,7.24-.01,8.69-8.7,1.47,8.69.02,7.25,8.69,8.7-8.69,1.46-7.24.01-8.69,8.69C454.37,654.46,455.81,655.9,447.14,654.46Z" fill="#0065b9"/>
      <path id="Tracé_43" data-name="Tracé 43" d="M461.14,729.6c8.69-1.46,7.24-.01,8.69-8.69,1.46,8.69.02,7.25,8.69,8.69-8.69,1.47-7.25.01-8.69,8.69C468.36,729.61,469.81,731.05,461.14,729.6Z" fill="#0065b9"/>
      <path id="Tracé_44" data-name="Tracé 44" d="M471.94,710.94c8.69-1.47,7.25-.01,8.69-8.69,1.47,8.68.03,7.25,8.7,8.69-8.69,1.46-7.25.01-8.7,8.69C479.17,710.94,480.61,712.38,471.94,710.94Z" fill="#0065b9"/>
      <path id="Tracé_45" data-name="Tracé 45" d="M576.31,862.94H246.13c18.79-68.01,81.11-118.82,156.2-122.55,4.36-32.66,6.91-68.06,8.23-102.28-3.27-21.78-1.65-18.1-28.84-22.62,29.94-5.05,25.03-.06,29.98-29.86v-.04c.01-1.1.01-2.19.01-3.27,0,1.05,0,2.11.01,3.17v.02c5.06,29.96.08,25,30,29.98-27.27,4.6-25.63.87-28.85,22.68,1.31,34.22,3.87,69.62,8.24,102.27C495.75,744.57,557.6,795.23,576.31,862.94Z" fill="#0065b9"/>
      <path id="Tracé_46" data-name="Tracé 46" d="M576.31,862.94H246.13c18.79-68.01,81.11-118.82,156.2-122.55,1.82-.1,3.64-.16,5.47-.19,1.14-.03,2.28-.04,3.42-.04q2.205,0,4.41.06c1.83.04,3.66.11,5.48.22C495.75,744.57,557.6,795.23,576.31,862.94Z" fill="#fc3d21"/>
      <path id="Tracé_47" data-name="Tracé 47" d="M572.31,862.94H250.13c19.57-59.69,78.81-104.07,150.15-108.21q3.315-.2,6.67-.27c1.42-.03,2.84-.05,4.27-.05,1.76,0,3.51.02,5.26.08q3.36.09,6.68.31C494.06,759.29,552.84,803.53,572.31,862.94Z"/>
      <path id="Tracé_48" data-name="Tracé 48" d="M458.88,860.98H364.56c17.19-19.76,28.5-59.38,35.72-106.25q1.1-7.065,2.05-14.34c4.36-32.66,6.91-68.06,8.23-102.28.69-18.01,1.05-35.7,1.14-52.48v-.04c.01-1.1.01-2.19.01-3.27,0,1.05,0,2.11.01,3.17v.02c.09,16.84.45,34.58,1.15,52.66,1.31,34.22,3.87,69.62,8.24,102.27q.945,7.29,2.05,14.36C430.39,801.64,441.7,841.23,458.88,860.98Z" fill="#ff5c00" fill-rule="evenodd"/>
      <path id="Tracé_49" data-name="Tracé 49" d="M431.44,860.98H392c7.2-19.79,11.94-59.53,14.95-106.52q.45-7.02.85-14.26c1.75-31.34,2.8-65.21,3.37-98.12.33-19.38.49-38.44.53-56.45v-.04c.01-1.1.01-2.19.01-3.27,0,1.05,0,2.11.01,3.17v.02c.04,18.07.2,37.19.54,56.65.57,32.89,1.63,66.74,3.37,98.06q.4,7.245.85,14.27C419.51,801.46,424.24,841.19,431.44,860.98Z" fill="#fff" fill-rule="evenodd"/>
      <path id="Tracé_50" data-name="Tracé 50" d="M441.72,615.49c-27.27,4.6-25.63.87-28.85,22.68-.19,1.24-.39,2.57-.61,3.99q-.255,1.59-.54,3.33c-.2-1.19-.38-2.33-.55-3.41-.23-1.41-.43-2.73-.61-3.97-3.27-21.78-1.65-18.1-28.84-22.62,29.94-5.05,25.03-.06,29.98-29.86v-.04c.01-.03.01-.05.02-.08C416.78,615.47,411.8,610.51,441.72,615.49Z" fill="#fc3d21"/>
      <path id="Tracé_51" data-name="Tracé 51" d="M397.44,679.91c-12.28,2.08-10.24.02-12.29,12.29-2.07-12.28-.03-10.25-12.29-12.29,12.29-2.07,10.25-.01,12.29-12.28C387.22,679.9,385.18,677.87,397.44,679.91Z" fill="#fc3d21"/>
      <path id="Tracé_52" data-name="Tracé 52" d="M453.88,710.13c-12.29,2.07-10.25.01-12.29,12.29-2.07-12.28-.03-10.25-12.29-12.29,12.28-2.07,10.24-.02,12.29-12.29C443.66,710.12,441.62,708.09,453.88,710.13Z" fill="#fc3d21"/>
      <path id="Tracé_53" data-name="Tracé 53" d="M464.52,654.46c-8.69,1.46-7.24.01-8.69,8.69-1.46-8.69-.02-7.25-8.69-8.69,8.69-1.47,7.24-.01,8.69-8.7C457.3,654.45,455.85,653.01,464.52,654.46Z" fill="#fc3d21"/>
      <path id="Tracé_54" data-name="Tracé 54" d="M442.67,644.88c-8.69,1.46-7.25.01-8.7,8.69-1.46-8.68-.02-7.25-8.69-8.69,8.69-1.47,7.25-.01,8.69-8.69C435.44,644.87,434,643.44,442.67,644.88Z" fill="#fc3d21"/>
      <path id="Tracé_55" data-name="Tracé 55" d="M401.16,640.95c-8.68,1.46-7.24.01-8.69,8.69-1.46-8.68-.02-7.25-8.69-8.69,8.69-1.47,7.25-.01,8.69-8.69C393.94,640.94,392.49,639.51,401.16,640.95Z" fill="#fc3d21"/>
      <path id="Tracé_56" data-name="Tracé 56" d="M489.33,710.94c-8.69,1.46-7.25.01-8.7,8.69-1.46-8.69-.02-7.25-8.69-8.69,8.69-1.47,7.25-.01,8.69-8.69C482.1,710.93,480.66,709.5,489.33,710.94Z" fill="#fc3d21"/>
      <path id="Tracé_57" data-name="Tracé 57" d="M478.52,729.6c-8.69,1.47-7.25.01-8.69,8.69-1.47-8.68-.02-7.24-8.69-8.69,8.69-1.46,7.24-.01,8.69-8.69C471.29,729.6,469.85,728.16,478.52,729.6Z" fill="#fc3d21"/>
      <path id="Tracé_58" data-name="Tracé 58" d="M356.47,724.2c-8.69,1.46-7.25.01-8.69,8.69-1.47-8.68-.02-7.25-8.69-8.69,8.68-1.47,7.24-.01,8.69-8.69C349.24,724.19,347.8,722.76,356.47,724.2Z" fill="#fc3d21"/>
      <path id="Tracé_59" data-name="Tracé 59" d="M338.05,715.11c-8.69,1.47-7.24.01-8.69,8.7-1.47-8.69-.02-7.25-8.69-8.7,8.69-1.46,7.24-.01,8.69-8.69C330.82,715.11,329.38,713.67,338.05,715.11Z" fill="#fc3d21"/>
      <path id="Tracé_60" data-name="Tracé 60" d="M330.93,744.09c-8.69,1.47-7.25.01-8.69,8.69-1.47-8.68-.02-7.25-8.69-8.69,8.68-1.46,7.24-.01,8.69-8.69C323.7,744.08,322.26,742.65,330.93,744.09Z" fill="#fc3d21"/>
      <text id="HTML" transform="translate(287.229 909.904)" fill="#fff" font-size="45.666" font-family="FranklinGothic-Book, Franklin Gothic Book" letter-spacing="0.9em"><tspan x="0" y="0">HTML</tspan></text>
      <text id="AYTO_DESING" data-name="AYTO DESING" transform="translate(192.088 349.452)" fill="#ff5c00" font-size="50.948" font-family="NasalizationRg-Regular, Nasalization"><tspan x="0" y="0">AYTO DESING</tspan></text>
      <line id="Ligne_63" data-name="Ligne 63" y1="606" transform="translate(160.823 314)" fill="none" stroke="#2e2e2e" stroke-miterlimit="10" stroke-width="1"/>
      <line id="Ligne_64" data-name="Ligne 64" x2="14.081" transform="translate(153.782 918.941)" fill="none" stroke="#2e2e2e" stroke-miterlimit="10" stroke-width="1"/>
      <line id="Ligne_65" data-name="Ligne 65" x2="14.081" transform="translate(153.782 314.059)" fill="none" stroke="#2e2e2e" stroke-miterlimit="10" stroke-width="1"/>
      <line id="Ligne_66" data-name="Ligne 66" x2="14.081" transform="translate(153.782 349.059)" fill="none" stroke="#2e2e2e" stroke-miterlimit="10" stroke-width="1"/>
      <line id="Ligne_67" data-name="Ligne 67" x2="14.081" transform="translate(153.782 370.059)" fill="none" stroke="#2e2e2e" stroke-miterlimit="10" stroke-width="1"/>
      <line id="Ligne_68" data-name="Ligne 68" x2="14.081" transform="translate(153.782 496.059)" fill="none" stroke="#2e2e2e" stroke-miterlimit="10" stroke-width="1"/>
      <g id="Groupe_41" data-name="Groupe 41">
        <line id="Ligne_69" data-name="Ligne 69" y1="386" transform="translate(650.823 535)" fill="none" stroke="#2e2e2e" stroke-miterlimit="10" stroke-width="1"/>
        <line id="Ligne_70" data-name="Ligne 70" x2="14.081" transform="translate(643.782 920.325)" fill="none" stroke="#2e2e2e" stroke-miterlimit="10" stroke-width="1"/>
        <line id="Ligne_71" data-name="Ligne 71" x2="14.081" transform="translate(643.782 535.675)" fill="none" stroke="#2e2e2e" stroke-miterlimit="10" stroke-width="1"/>
      </g>
      <g id="Groupe_42" data-name="Groupe 42">
        <line id="Ligne_72" data-name="Ligne 72" y1="35" transform="translate(580.823 314)" fill="none" stroke="#2e2e2e" stroke-miterlimit="10" stroke-width="1"/>
        <line id="Ligne_73" data-name="Ligne 73" x2="14.081" transform="translate(573.782 348.939)" fill="none" stroke="#2e2e2e" stroke-miterlimit="10" stroke-width="1"/>
        <line id="Ligne_74" data-name="Ligne 74" x2="14.081" transform="translate(573.782 314.061)" fill="none" stroke="#2e2e2e" stroke-miterlimit="10" stroke-width="1"/>
      </g>
      <line id="Ligne_75" data-name="Ligne 75" x2="3.017" transform="translate(651.074 728)" fill="none" stroke="#2e2e2e" stroke-miterlimit="10" stroke-width="1"/>
      <text id="_419" data-name="419" transform="translate(662.976 731.929)" fill="#2e2e2e" font-size="12.237" font-family="LW, Linowrite"><tspan x="0" y="0">419</tspan></text>
      <line id="Ligne_76" data-name="Ligne 76" x2="3.017" transform="translate(581.044 332.191)" fill="none" stroke="#2e2e2e" stroke-miterlimit="10" stroke-width="1"/>
      <line id="Ligne_77" data-name="Ligne 77" x2="3.017" transform="translate(157.321 331.83)" fill="none" stroke="#2e2e2e" stroke-miterlimit="10" stroke-width="1"/>
      <line id="Ligne_78" data-name="Ligne 78" x2="3.017" transform="translate(157.917 431.574)" fill="none" stroke="#2e2e2e" stroke-miterlimit="10" stroke-width="1"/>
      <text id="_22" data-name="22" transform="translate(589.761 336.193)" fill="#2e2e2e" font-size="12.237" font-family="LW, Linowrite"><tspan x="0" y="0">22</tspan></text>
      <text id="_32" data-name="32" transform="translate(128.622 334.64)" fill="#2e2e2e" font-size="12.237" font-family="LW, Linowrite"><tspan x="0" y="0">32</tspan></text>
      <text id="_126" data-name="126" transform="translate(128.622 434.64)" fill="#2e2e2e" font-size="12.237" font-family="LW, Linowrite"><tspan x="0" y="0">126</tspan></text>
      <text id="_306" data-name="306" transform="translate(106.622 613.64)" fill="#2e2e2e" font-size="12.237" font-family="LW, Linowrite"><tspan x="0" y="0">306</tspan></text>
    </g>
  </g>
</svg>
