<svg xmlns="http://www.w3.org/2000/svg" width="71.301" height="33.245" viewBox="0 0 71.301 33.245">
  <g id="click" transform="translate(6943.301 345.245)">
    <text id="CLICK-2" data-name="CLICK" transform="translate(-6900 -317)" fill="#fff" font-size="18" font-family="LW, Linowrite"><tspan x="-27.729" y="0">CLICK</tspan></text>
    <g id="Soustraction_4" data-name="Soustraction 4" transform="translate(-6946.214 -338.037) rotate(-43)" fill="#ff5c00">
      <path d="M 3.16651439666748 17.75031089782715 L 3.000179767608643 17.75 C 2.413449764251709 17.75 1.869219660758972 17.45867156982422 1.543899655342102 16.9706916809082 C 1.218579769134521 16.48270034790039 1.159019708633423 15.86819076538086 1.384579658508301 15.32685089111328 L 5.884579658508301 4.526850700378418 C 6.161439895629883 3.862751007080078 6.780499935150146 3.450181007385254 7.500159740447998 3.450181007385254 C 8.219820022583008 3.450181007385254 8.838879585266113 3.862751007080078 9.11575984954834 4.526900768280029 L 13.6157398223877 15.32685089111328 C 13.84126949310303 15.86813068389893 13.78172969818115 16.48255157470703 13.45646953582764 16.97043037414551 C 13.13105010986328 17.45857048034668 12.58646965026855 17.75 11.99971008300781 17.75 L 11.83367538452148 17.75 L 9.577269554138184 12.33465099334717 C 9.221260070800781 11.48071098327637 8.425369262695313 10.950270652771 7.500159740447998 10.950270652771 C 6.574949741363525 10.950270652771 5.779049873352051 11.48071098327637 5.423059940338135 12.3346004486084 L 3.16651439666748 17.75031089782715 Z" stroke="none"/>
      <path d="M 12.00034427642822 17.5 C 12.50307846069336 17.49978637695313 12.96962928771973 17.2500114440918 13.248459815979 16.83176040649414 C 13.52723979949951 16.41358184814453 13.57827949523926 15.88695049285889 13.38496971130371 15.42301082611084 L 8.885009765625 4.623100757598877 C 8.647679328918457 4.053821086883545 8.117039680480957 3.700181007385254 7.500159740447998 3.700181007385254 C 6.883279800415039 3.700181007385254 6.352639675140381 4.053821086883545 6.115349769592285 4.623011112213135 L 1.615349769592285 15.42301082611084 C 1.422019720077515 15.88701057434082 1.473069667816162 16.41374015808105 1.751919746398926 16.83201026916504 C 2.030640602111816 17.25010299682617 2.496810913085938 17.49978637695313 2.999974250793457 17.5 L 5.192309856414795 12.23840045928955 C 5.587849617004395 11.28965091705322 6.472169876098633 10.700270652771 7.500159740447998 10.700270652771 C 8.528149604797363 10.700270652771 9.412459373474121 11.28965091705322 9.808039665222168 12.23849105834961 L 12.00034427642822 17.5 M 3.333059787750244 18.0006217956543 L 3.332389831542969 18.0006217956543 L 2.999709606170654 18 C 2.329669713973999 18 1.707679748535156 17.66705131530762 1.33588969707489 17.10936164855957 C 0.9640997052192688 16.55167007446289 0.8960297107696533 15.8493709564209 1.153809666633606 15.23070049285889 L 5.653809547424316 4.430700778961182 C 5.970239639282227 3.671690940856934 6.677719593048096 3.200181007385254 7.500159740447998 3.200181007385254 C 8.322589874267578 3.200181007385254 9.03007984161377 3.671690940856934 9.34650993347168 4.430700778961182 L 13.84650993347168 15.23070049285889 C 14.1042594909668 15.84931087493896 14.03621006011963 16.55152130126953 13.66447925567627 17.10911178588867 C 13.29259014129639 17.66696166992188 12.67023944854736 18 11.99971008300781 18 L 11.6670093536377 18 L 9.346499443054199 12.43080139160156 C 9.030059814453125 11.67178058624268 8.322589874267578 11.200270652771 7.500159740447998 11.200270652771 C 6.677719593048096 11.200270652771 5.970249652862549 11.67178058624268 5.653809547424316 12.43080139160156 L 3.333309650421143 18 L 3.333059787750244 18.0006217956543 Z" stroke="none" fill="#fff"/>
    </g>
  </g>
</svg>
