<svg xmlns="http://www.w3.org/2000/svg" width="830.763" height="218.747" viewBox="0 0 830.763 218.747">
  <g id="Groupe_55" data-name="Groupe 55" transform="translate(-1071 -534.884)">
    <g id="Calque_2" data-name="Calque 2">
      <rect id="Rectangle_215" data-name="Rectangle 215" width="49.7" height="164.56" transform="translate(1769 536.4)"/>
      <rect id="Rectangle_216" data-name="Rectangle 216" width="681.71" height="164.56" transform="translate(1087.29 536.4)" fill="#ff5c00"/>
      <g id="Groupe_52" data-name="Groupe 52">
        <rect id="Rectangle_217" data-name="Rectangle 217" width="5.224" height="148.887" transform="translate(1113.406 544.239)"/>
        <rect id="Rectangle_218" data-name="Rectangle 218" width="2.612" height="107.094" transform="translate(1121.513 544.239)"/>
        <rect id="Rectangle_219" data-name="Rectangle 219" width="5.224" height="107.094" transform="translate(1129.621 544.239)"/>
        <rect id="Rectangle_220" data-name="Rectangle 220" width="7.836" height="107.094" transform="translate(1137.728 544.239)"/>
        <rect id="Rectangle_221" data-name="Rectangle 221" width="2.612" height="107.094" transform="translate(1145.836 544.239)"/>
        <rect id="Rectangle_222" data-name="Rectangle 222" width="2.612" height="107.094" transform="translate(1153.943 544.239)"/>
        <rect id="Rectangle_223" data-name="Rectangle 223" width="5.224" height="107.094" transform="translate(1162.051 544.239)"/>
        <rect id="Rectangle_224" data-name="Rectangle 224" width="2.612" height="107.094" transform="translate(1170.158 544.239)"/>
        <rect id="Rectangle_225" data-name="Rectangle 225" width="2.612" height="107.094" transform="translate(1178.266 544.239)"/>
        <rect id="Rectangle_226" data-name="Rectangle 226" width="2.612" height="107.094" transform="translate(1186.373 544.239)"/>
        <rect id="Rectangle_227" data-name="Rectangle 227" width="5.224" height="107.094" transform="translate(1194.481 544.239)"/>
        <rect id="Rectangle_228" data-name="Rectangle 228" width="7.836" height="107.094" transform="translate(1243.126 544.239)"/>
        <rect id="Rectangle_229" data-name="Rectangle 229" width="5.224" height="107.094" transform="translate(1251.233 544.239)"/>
        <rect id="Rectangle_230" data-name="Rectangle 230" width="2.612" height="107.094" transform="translate(1259.341 544.239)"/>
        <rect id="Rectangle_231" data-name="Rectangle 231" width="2.612" height="107.094" transform="translate(1267.448 544.239)"/>
        <rect id="Rectangle_232" data-name="Rectangle 232" width="15.672" height="107.094" transform="translate(1275.556 544.239)"/>
        <rect id="Rectangle_233" data-name="Rectangle 233" width="13.06" height="107.094" transform="translate(1283.663 544.239)"/>
        <rect id="Rectangle_234" data-name="Rectangle 234" width="5.224" height="107.094" transform="translate(1291.771 544.239)"/>
        <rect id="Rectangle_235" data-name="Rectangle 235" width="2.612" height="107.094" transform="translate(1299.878 544.239)"/>
        <rect id="Rectangle_236" data-name="Rectangle 236" width="2.612" height="107.094" transform="translate(1307.986 544.239)"/>
        <rect id="Rectangle_237" data-name="Rectangle 237" width="7.836" height="107.094" transform="translate(1316.093 544.239)"/>
        <rect id="Rectangle_238" data-name="Rectangle 238" width="5.224" height="107.094" transform="translate(1324.201 544.239)"/>
        <rect id="Rectangle_239" data-name="Rectangle 239" width="10.448" height="107.094" transform="translate(1213.036 651.333) rotate(180)"/>
        <rect id="Rectangle_240" data-name="Rectangle 240" width="2.612" height="107.094" transform="translate(1210.696 544.239)"/>
        <rect id="Rectangle_241" data-name="Rectangle 241" width="5.224" height="107.094" transform="translate(1218.803 544.239)"/>
        <rect id="Rectangle_242" data-name="Rectangle 242" width="2.612" height="107.094" transform="translate(1226.911 544.239)"/>
        <rect id="Rectangle_243" data-name="Rectangle 243" width="2.612" height="107.094" transform="translate(1235.018 544.239)"/>
        <rect id="Rectangle_244" data-name="Rectangle 244" width="5.073" height="107.094" transform="translate(1734.649 651.333) rotate(180)"/>
        <rect id="Rectangle_245" data-name="Rectangle 245" width="7.609" height="107.094" transform="translate(1729.078 651.333) rotate(180)"/>
        <rect id="Rectangle_246" data-name="Rectangle 246" width="2.536" height="107.094" transform="translate(1715.898 651.333) rotate(180)"/>
        <rect id="Rectangle_247" data-name="Rectangle 247" width="2.536" height="107.094" transform="translate(1707.79 651.333) rotate(180)"/>
        <rect id="Rectangle_248" data-name="Rectangle 248" width="5.073" height="107.094" transform="translate(1702.219 651.333) rotate(180)"/>
        <rect id="Rectangle_249" data-name="Rectangle 249" width="2.536" height="107.094" transform="translate(1691.575 651.333) rotate(180)"/>
        <rect id="Rectangle_250" data-name="Rectangle 250" width="2.536" height="107.094" transform="translate(1683.468 651.333) rotate(180)"/>
        <rect id="Rectangle_251" data-name="Rectangle 251" width="2.536" height="107.094" transform="translate(1675.36 651.333) rotate(180)"/>
        <rect id="Rectangle_252" data-name="Rectangle 252" width="5.073" height="107.094" transform="translate(1669.789 651.333) rotate(180)"/>
        <rect id="Rectangle_253" data-name="Rectangle 253" width="7.609" height="107.094" transform="translate(1623.68 651.333) rotate(180)"/>
        <rect id="Rectangle_254" data-name="Rectangle 254" width="5.073" height="107.094" transform="translate(1613.036 651.333) rotate(180)"/>
        <rect id="Rectangle_255" data-name="Rectangle 255" width="2.536" height="107.094" transform="translate(1602.393 651.333) rotate(180)"/>
        <rect id="Rectangle_256" data-name="Rectangle 256" width="2.536" height="107.094" transform="translate(1594.285 651.333) rotate(180)"/>
        <rect id="Rectangle_257" data-name="Rectangle 257" width="15.218" height="107.094" transform="translate(1598.859 651.333) rotate(180)"/>
        <rect id="Rectangle_258" data-name="Rectangle 258" width="12.681" height="107.094" transform="translate(1588.215 651.333) rotate(180)"/>
        <rect id="Rectangle_259" data-name="Rectangle 259" width="5.073" height="107.094" transform="translate(1572.499 651.333) rotate(180)"/>
        <rect id="Rectangle_260" data-name="Rectangle 260" width="2.536" height="107.094" transform="translate(1561.855 651.333) rotate(180)"/>
        <rect id="Rectangle_261" data-name="Rectangle 261" width="2.536" height="107.094" transform="translate(1553.748 651.333) rotate(180)"/>
        <rect id="Rectangle_262" data-name="Rectangle 262" width="7.609" height="107.094" transform="translate(1550.713 651.333) rotate(180)"/>
        <rect id="Rectangle_263" data-name="Rectangle 263" width="5.073" height="107.094" transform="translate(1540.069 651.333) rotate(180)"/>
        <rect id="Rectangle_264" data-name="Rectangle 264" width="10.145" height="107.094" transform="translate(1656.609 544.239)"/>
        <rect id="Rectangle_265" data-name="Rectangle 265" width="2.536" height="107.094" transform="translate(1651.038 651.333) rotate(180)"/>
        <rect id="Rectangle_266" data-name="Rectangle 266" width="5.073" height="107.094" transform="translate(1645.467 651.333) rotate(180)"/>
        <rect id="Rectangle_267" data-name="Rectangle 267" width="2.536" height="107.094" transform="translate(1634.823 651.333) rotate(180)"/>
        <rect id="Rectangle_268" data-name="Rectangle 268" width="2.536" height="107.094" transform="translate(1626.715 651.333) rotate(180)"/>
        <rect id="Rectangle_269" data-name="Rectangle 269" width="5.073" height="107.094" transform="translate(1531.961 651.333) rotate(180)"/>
        <rect id="Rectangle_270" data-name="Rectangle 270" width="7.609" height="107.094" transform="translate(1526.39 651.333) rotate(180)"/>
        <rect id="Rectangle_271" data-name="Rectangle 271" width="2.536" height="107.094" transform="translate(1513.21 651.333) rotate(180)"/>
        <rect id="Rectangle_272" data-name="Rectangle 272" width="2.536" height="107.094" transform="translate(1505.103 651.333) rotate(180)"/>
        <rect id="Rectangle_273" data-name="Rectangle 273" width="5.073" height="107.094" transform="translate(1499.531 651.333) rotate(180)"/>
        <rect id="Rectangle_274" data-name="Rectangle 274" width="2.536" height="107.094" transform="translate(1488.887 651.333) rotate(180)"/>
        <rect id="Rectangle_275" data-name="Rectangle 275" width="2.536" height="107.094" transform="translate(1480.78 651.333) rotate(180)"/>
        <rect id="Rectangle_276" data-name="Rectangle 276" width="2.536" height="107.094" transform="translate(1472.672 651.333) rotate(180)"/>
        <rect id="Rectangle_277" data-name="Rectangle 277" width="5.073" height="107.094" transform="translate(1467.101 651.333) rotate(180)"/>
        <rect id="Rectangle_278" data-name="Rectangle 278" width="7.609" height="107.094" transform="translate(1420.992 651.333) rotate(180)"/>
        <rect id="Rectangle_279" data-name="Rectangle 279" width="5.073" height="107.094" transform="translate(1410.349 651.333) rotate(180)"/>
        <rect id="Rectangle_280" data-name="Rectangle 280" width="2.536" height="107.094" transform="translate(1399.705 651.333) rotate(180)"/>
        <rect id="Rectangle_281" data-name="Rectangle 281" width="2.536" height="107.094" transform="translate(1391.597 651.333) rotate(180)"/>
        <rect id="Rectangle_282" data-name="Rectangle 282" width="15.218" height="107.094" transform="translate(1396.171 651.333) rotate(180)"/>
        <rect id="Rectangle_283" data-name="Rectangle 283" width="12.681" height="107.094" transform="translate(1385.527 651.333) rotate(180)"/>
        <rect id="Rectangle_284" data-name="Rectangle 284" width="5.073" height="107.094" transform="translate(1369.811 651.333) rotate(180)"/>
        <rect id="Rectangle_285" data-name="Rectangle 285" width="2.536" height="107.094" transform="translate(1359.167 651.333) rotate(180)"/>
        <rect id="Rectangle_286" data-name="Rectangle 286" width="2.536" height="107.094" transform="translate(1351.06 651.333) rotate(180)"/>
        <rect id="Rectangle_287" data-name="Rectangle 287" width="7.609" height="107.094" transform="translate(1348.025 651.333) rotate(180)"/>
        <rect id="Rectangle_288" data-name="Rectangle 288" width="5.073" height="107.094" transform="translate(1337.381 651.333) rotate(180)"/>
        <rect id="Rectangle_289" data-name="Rectangle 289" width="10.145" height="107.094" transform="translate(1453.921 544.239)"/>
        <rect id="Rectangle_290" data-name="Rectangle 290" width="2.536" height="107.094" transform="translate(1448.35 651.333) rotate(180)"/>
        <rect id="Rectangle_291" data-name="Rectangle 291" width="5.073" height="107.094" transform="translate(1442.779 651.333) rotate(180)"/>
        <rect id="Rectangle_292" data-name="Rectangle 292" width="2.536" height="107.094" transform="translate(1432.135 651.333) rotate(180)"/>
        <rect id="Rectangle_293" data-name="Rectangle 293" width="2.536" height="107.094" transform="translate(1424.027 651.333) rotate(180)"/>
        <rect id="Rectangle_294" data-name="Rectangle 294" width="5.224" height="148.887" transform="translate(1737.684 544.239)"/>
      </g>
      <text id="AYTO" transform="translate(1216.688 687.456)" fill="#2e2e2e" font-size="33.957" font-family="NotoSans-Bold, Noto Sans" font-weight="700" letter-spacing="3em"><tspan x="0" y="0">AYTO</tspan></text>
      <text id="_286" data-name="286" transform="translate(1430.878 749.631)" font-size="14.316" font-family="LW, Linowrite"><tspan x="0" y="0">286</tspan></text>
      <text id="_63" data-name="63" transform="translate(1882.763 619.029)" fill="#2e2e2e" font-size="14.316" font-family="LW, Linowrite"><tspan x="0" y="0">63</tspan></text>
      <text id="DEVELOPPER" transform="translate(1799.563 666.212) rotate(-90)" fill="#ff5c00" font-size="15.612" font-family="NotoSans-Bold, Noto Sans" font-weight="700"><tspan x="0" y="0">DEVELOPPER</tspan></text>
      <rect id="Rectangle_295" data-name="Rectangle 295" width="7.836" height="164.559" transform="translate(1071.653 536.403)"/>
    </g>
    <g id="Calque_5" data-name="Calque 5">
      <g id="Groupe_53" data-name="Groupe 53">
        <line id="Ligne_108" data-name="Ligne 108" x2="747.045" transform="translate(1071 725.776)" stroke="#2e2e2e" stroke-miterlimit="10" stroke-width="1"/>
        <line id="Ligne_109" data-name="Ligne 109" y2="36.569" transform="translate(1072.306 707.491)" stroke="#2e2e2e" stroke-miterlimit="10" stroke-width="1"/>
        <line id="Ligne_110" data-name="Ligne 110" y2="36.569" transform="translate(1816.739 707.491)" stroke="#2e2e2e" stroke-miterlimit="10" stroke-width="1"/>
      </g>
      <g id="Groupe_54" data-name="Groupe 54">
        <line id="Ligne_111" data-name="Ligne 111" y1="164.559" transform="translate(1857.225 535.097)" fill="none" stroke="#2e2e2e" stroke-miterlimit="10" stroke-width="1"/>
        <line id="Ligne_112" data-name="Ligne 112" x2="36.569" transform="translate(1838.941 699.368)" fill="none" stroke="#2e2e2e" stroke-miterlimit="10" stroke-width="1"/>
        <line id="Ligne_113" data-name="Ligne 113" x2="36.569" transform="translate(1838.941 535.384)" fill="none" stroke="#2e2e2e" stroke-miterlimit="10" stroke-width="1"/>
      </g>
      <line id="Ligne_114" data-name="Ligne 114" y2="7.836" transform="translate(1444.522 725.776)" stroke="#2e2e2e" stroke-miterlimit="10" stroke-width="1"/>
      <line id="Ligne_115" data-name="Ligne 115" x2="7.836" transform="translate(1857.878 617.376)" fill="none" stroke="#2e2e2e" stroke-miterlimit="10" stroke-width="1"/>
    </g>
  </g>
</svg>
