<svg xmlns="http://www.w3.org/2000/svg" width="52.785" height="52.55" viewBox="0 0 52.785 52.55">
  <g id="nasa" transform="translate(2785.213 761.847) rotate(-9)">
    <path id="Tracé_33" data-name="Tracé 33" d="M29.849,25.369H0A15.364,15.364,0,0,1,14.121,14.29c.394-2.953.625-6.153.744-9.246-.3-1.969-.149-1.636-2.607-2.045,2.707-.457,2.263-.005,2.71-2.7v0c0-.1,0-.2,0-.3,0,.095,0,.191,0,.287v0C15.427,3,14.977,2.548,17.682,3c-2.465.416-2.317.079-2.608,2.05.118,3.094.35,6.294.745,9.246A15.362,15.362,0,0,1,29.849,25.369Z" transform="translate(-2629.554 -1160.664) rotate(-34)"/>
    <path id="Tracé_34" data-name="Tracé 34" d="M39.282,31.531l-.014-.025-.726-1.255L22.5,2.461c-.034-.059-.061-.11-.093-.167l-.5-.867-.026-.04C21.346.5,20.876,0,19.826,0a2.19,2.19,0,0,0-2.049,1.37c-.141.233-.288.5-.449.783l-.178.306s0,0,0,0L1.106,30.251l-.7,1.207a2.114,2.114,0,0,0-.1,2.336,2.151,2.151,0,0,0,2.144,1.085H37.192a2.152,2.152,0,0,0,2.147-1.085A2.071,2.071,0,0,0,39.282,31.531ZM36.265,29.7c-.167.289-.25.337-.379.4a2.133,2.133,0,0,1-.786.121H4.513a2.129,2.129,0,0,1-.786-.121c-.129-.059-.212-.107-.379-.4a.774.774,0,0,1-.155-.505,1.827,1.827,0,0,1,.229-.647l.009-.017,0,0,.523-.9.189-.33,0,0L18.116,3.1l.177-.306.481-.83a2.412,2.412,0,0,1,.495-.625.611.611,0,0,1,.423-.136c.035,0,.073,0,.116,0,.344,0,.42.046.54.136a2.488,2.488,0,0,1,.5.63l.65,1.127,13.97,24.2,0,0,.712,1.231.014.028a1.8,1.8,0,0,1,.226.639A.771.771,0,0,1,36.265,29.7Z" transform="translate(-2635.973 -1161.463) rotate(-34)"/>
    <path id="Tracé_45" data-name="Tracé 45" d="M29.849,25.369H0A15.364,15.364,0,0,1,14.121,14.29c.394-2.953.625-6.153.744-9.246-.3-1.969-.149-1.636-2.607-2.045,2.707-.457,2.263-.005,2.71-2.7v0c0-.1,0-.2,0-.3,0,.095,0,.191,0,.287v0C15.427,3,14.977,2.548,17.682,3c-2.465.416-2.317.079-2.608,2.05.118,3.094.35,6.294.745,9.246A15.362,15.362,0,0,1,29.849,25.369Z" transform="translate(-2629.554 -1160.664) rotate(-34)" fill="#0065b9"/>
    <path id="Tracé_46" data-name="Tracé 46" d="M29.849,11.1H0A15.364,15.364,0,0,1,14.121.021c.165-.009.329-.014.495-.017.1,0,.206,0,.309,0q.2,0,.4.005c.165,0,.331.01.5.02A15.362,15.362,0,0,1,29.849,11.1Z" transform="translate(-2621.575 -1148.834) rotate(-34)" fill="#fc3d21"/>
    <path id="Tracé_47" data-name="Tracé 47" d="M29.126,9.812H0C1.769,4.415,7.125.4,13.574.029q.3-.018.6-.024c.128,0,.257,0,.386,0,.159,0,.317,0,.476.007q.3.008.6.028C22.052.441,27.366,4.441,29.126,9.812Z" transform="translate(-2620.555 -1147.968) rotate(-34)"/>
    <path id="Tracé_48" data-name="Tracé 48" d="M8.527,25.192H0c1.554-1.786,2.577-5.368,3.229-9.605q.1-.639.185-1.3c.394-2.953.625-6.153.744-9.246.062-1.628.095-3.227.1-4.744v0c0-.1,0-.2,0-.3,0,.095,0,.191,0,.287v0c.008,1.522.041,3.126.1,4.761.118,3.094.35,6.294.745,9.246q.085.659.185,1.3C5.951,19.827,6.974,23.406,8.527,25.192Z" transform="translate(-2620.678 -1166.651) rotate(-34)" fill="#ff5c00" fill-rule="evenodd"/>
    <path id="Tracé_49" data-name="Tracé 49" d="M3.566,25.192H0c.651-1.789,1.079-5.382,1.352-9.63q.041-.635.077-1.289c.158-2.833.253-5.9.3-8.87.03-1.752.044-3.475.048-5.1v0c0-.1,0-.2,0-.3,0,.095,0,.191,0,.287v0c0,1.634.018,3.362.049,5.121.052,2.973.147,6.034.3,8.865q.037.655.077,1.29C2.487,19.811,2.915,23.4,3.566,25.192Z" transform="translate(-2618.621 -1168.038) rotate(-34)" fill="#fff" fill-rule="evenodd"/>
    <path id="Tracé_50" data-name="Tracé 50" d="M5.424,2.71c-2.465.416-2.317.079-2.608,2.05-.017.112-.035.232-.055.361q-.023.144-.049.3c-.018-.108-.034-.211-.05-.308-.021-.127-.039-.247-.055-.359C2.312,2.786,2.458,3.119,0,2.71,2.707,2.254,2.263,2.7,2.71.011v0l0-.007C3.17,2.708,2.719,2.26,5.424,2.71Z" transform="translate(-2619.231 -1167.279) rotate(-34)" fill="#fc3d21"/>
  </g>
</svg>
