<svg xmlns="http://www.w3.org/2000/svg" width="2038.398" height="1526.506" viewBox="0 0 2038.398 1526.506">
  <path id="Union_2" data-name="Union 2" d="M242.826,1495.3c26.6-24.76,76.693-71.814,133.766-124.432l0,0c97.887-90.253,216.334-196.837,272.181-235.392C681.918,1112.6,757.267,1061,842.7,1003.03q7.919-5.384,15.942-10.845c26.023-17.63,52.786-35.708,79.414-53.679,58.747-39.582,116.812-78.428,164.817-110.014,41.2-27.1,75.009-48.847,95.435-61.12,2.56-1.556,4.908-2.927,7.047-4.166,13.75-7.973,33.41-20.586,56.847-36.419l.185.289,7.576-5.3,4.936-3.193.212-.132c-.029-.052-.08-.13-.107-.184s-.052-.08-.08-.13c1.954-1.346,3.931-2.694,5.913-4.04h.025c27.79-19.131,59.514-41.561,92.479-65.417l.012,0c.531-.386,38.1-27.724,57.049-41.763,85.059-62.988,167.647-127.376,202.034-159.964-77.278,53.088-167.67,100.213-258.973,140.443-48.923,21.617-98.079,41.232-145.676,58.748,0,0-51.209,18.334-68.285,24.133-48.527,16.47-94.213,30.494-134.751,41.884-11.9,3.354-24.857,6.918-38.7,10.646-47.177,12.694-104.628,27.418-165.364,42.723-37.672,9.5-76.554,19.24-115.088,28.907-7.083,1.772-14.094,3.541-21.154,5.289-82.285,20.661-161.378,40.649-220.833,56.7h-.023c-28.493,7.711-52.465,14.535-70.149,20.1-3.516,1.094-7.058,2.214-10.6,3.331h-.023C328.606,896.772,272.74,913.473,207.3,939.82c-16.751,6.732-34.108,14.093-52.232,22.269q-7.9,3.528-16.007,7.315c-35.622,16.586-74.225,36.293-116.648,60.239L0,1020.932c40.84-26.393,85.711-51.947,133.1-76.477,5.055-2.633,10.157-5.241,15.26-7.826q25.51-13,51.79-25.531c50.67-24.273,103.183-47.358,155.74-69.07q35.018-14.5,69.845-28.139h.025C502.17,783.955,577,757.073,644.8,733.9c2.447-.862,4.869-1.677,7.316-2.493,2.447-.839,4.846-1.654,7.269-2.47,1.422-.488,2.841-.979,4.24-1.468,43.612-14.768,83.939-27.907,119.445-39.251,28.887-9.248,54.585-17.332,76.227-24.11,4.707-1.444,9.226-2.866,13.537-4.216q31.451-9.856,65.7-21.384c33.292-11.206,68.213-23.5,104.208-36.643,33.059-12.091,83.568-31.355,117.768-44.656,156.906-61.591,318.122-133.129,431.416-195.395q17.962-9.89,34.248-19.405,7.058-4.157,14.583-8.573c4.636-2.772,9.412-5.589,14.281-8.524C1756.351,264.439,1906.8,164.134,2035.87,0c-65.746,191.133-218.6,342.849-323.691,435.072-5.265,4.635-10.438,9.132-15.447,13.466-16.984,14.65-32.382,27.534-45.546,38.576q-1.327,1.082-2.585,2.166c-40.142,33.731-97.337,77.361-173.214,131.334-20.41,14.56-65.372,45.868-65.372,45.868l-.005,0,.014.009q-36.461,25.3-77.515,53.069h-.025q-19.717,13.3-40.511,27.234l-12.352,8.285h-.025q-20.667,13.815-42.388,28.158h-.025q-25.02,16.5-51.405,33.8h0l-5.225,3.415-.009.019q-45.173,29.492-94.431,61.2-7.561,4.868-15.256,9.791c-14.461,9.288-33.992,22.114-56.929,37.393,0,0,0,.027-.025.027-36.869,24.54-82.58,55.47-130.428,88.349h-.029c-8.391,5.78-16.889,11.638-25.387,17.523C777.352,1090.482,693.9,1149.595,638.794,1191.5c-68.2,51.855-125.786,93.521-244.472,195.516l0,0c-42.424,36.432-92.671,80.571-153.963,135.636Zm941.422-679-1.539-.743,0,.007Z" transform="translate(1.094 2.633)" fill="#ff5c00" stroke="rgba(0,0,0,0)" stroke-miterlimit="10" stroke-width="1"/>
</svg>
